<?xml version="1.0" encoding="UTF-8"?>
<svg width="200" height="200" viewBox="0 0 200 200" xmlns="http://www.w3.org/2000/svg">
  <!-- Background Circle -->
  <circle cx="100" cy="100" r="90" fill="#2563EB" />
  
  <!-- Central Hub -->
  <circle cx="100" cy="100" r="30" fill="#F9FAFB" stroke="#1E40AF" stroke-width="3"/>
  
  <!-- Pulse Rings -->
  <circle cx="100" cy="100" r="45" fill="none" stroke="#F9FAFB" stroke-width="2" opacity="0.7">
    <animate attributeName="r" from="35" to="65" dur="1.5s" begin="0s" repeatCount="indefinite"/>
    <animate attributeName="opacity" from="0.7" to="0" dur="1.5s" begin="0s" repeatCount="indefinite"/>
  </circle>
  <circle cx="100" cy="100" r="55" fill="none" stroke="#F9FAFB" stroke-width="2" opacity="0.5">
    <animate attributeName="r" from="45" to="75" dur="1.5s" begin="0.5s" repeatCount="indefinite"/>
    <animate attributeName="opacity" from="0.5" to="0" dur="1.5s" begin="0.5s" repeatCount="indefinite"/>
  </circle>
  
  <!-- Connection Lines -->
  <line x1="100" y1="40" x2="100" y2="70" stroke="#F9FAFB" stroke-width="3"/>
  <line x1="100" y1="130" x2="100" y2="160" stroke="#F9FAFB" stroke-width="3"/>
  <line x1="40" y1="100" x2="70" y2="100" stroke="#F9FAFB" stroke-width="3"/>
  <line x1="130" y1="100" x2="160" y2="100" stroke="#F9FAFB" stroke-width="3"/>
  <line x1="58" y1="58" x2="78" y2="78" stroke="#F9FAFB" stroke-width="3"/>
  <line x1="122" y1="122" x2="142" y2="142" stroke="#F9FAFB" stroke-width="3"/>
  <line x1="58" y1="142" x2="78" y2="122" stroke="#F9FAFB" stroke-width="3"/>
  <line x1="122" y1="78" x2="142" y2="58" stroke="#F9FAFB" stroke-width="3"/>
  
  <!-- Connection Nodes -->
  <circle cx="40" cy="100" r="8" fill="#10B981"/>
  <circle cx="160" cy="100" r="8" fill="#10B981"/>
  <circle cx="100" cy="40" r="8" fill="#10B981"/>
  <circle cx="100" cy="160" r="8" fill="#10B981"/>
  <circle cx="58" cy="58" r="8" fill="#10B981"/>
  <circle cx="142" cy="142" r="8" fill="#10B981"/>
  <circle cx="58" cy="142" r="8" fill="#10B981"/>
  <circle cx="142" cy="58" r="8" fill="#10B981"/>
  
  <!-- Lightning Bolt in Center -->
  <path d="M105 85 L90 105 L100 105 L95 120 L110 100 L100 100 Z" fill="#FBBF24" stroke="#F59E0B" stroke-width="1"/>
</svg> 