<svg width="240" height="78" viewBox="0 0 240 78" fill="none" xmlns="http://www.w3.org/2000/svg">
<path d="M32.145 45.1894C31.7901 44.7901 31.2133 44.5239 31.2133 43.326C31.2133 42.128 30.5478 36.2048 31.2133 36.2048H34.1417L42.0615 39L44.5239 37.8021C44.5239 37.8021 50.9796 33.4761 55.2389 28.4181C56.6671 26.7222 59.3363 24.4915 62.5598 19.2338C65.7832 13.9761 70.0803 0 70.0803 0L70.6792 15.1741L72.8035 7.05461L71.4779 20.6314L73.2082 13.9761C73.2082 13.9761 71.8482 24.3193 71.5015 25.4842C71.8565 24.5175 73.2082 19.2338 73.2082 19.2338C73.2082 19.2338 73.2694 24.2918 72.8035 25.5563C72.3377 26.8208 67.8175 31.2799 67.8175 31.2799L72.8035 27.4198C72.8035 27.4198 71.1451 31.2799 70.0803 33.2765C69.0154 35.2731 68.6161 36.1382 65.8874 38.9335C63.1587 41.7287 60.7628 43.326 58.9659 44.657C57.169 45.9881 54.64 48.6502 54.64 48.6502L53.6417 44.657V49.715L47.9847 53.2423L35.6724 52.3106L30.1485 58.8328C30.1485 58.8328 27.4864 66.8857 26.2884 66.8857H6.65529C4.48072 66.8857 2.82812 65.0588 1.56828 63.6661L1.53072 63.6246C0.266212 62.227 0 60.4301 0 60.4301L7.98635 62.0273L4.72526 60.4301H8.85154C10.7816 60.4301 14.442 59.2321 17.9693 57.7014C21.4966 56.1707 24.6246 54.3737 26.8874 52.3106C29.1502 50.2475 32.145 45.1894 32.145 45.1894Z" fill="black"/>
<path fill-rule="evenodd" clip-rule="evenodd" d="M53.9877 43.9118L55.066 48.379L56.4002 49.2685L61.9434 56.3955L79.6076 59.2489L76.6083 64.1503L70.7711 71.2992L70.7719 71.2999L70.4009 71.8438L70.1349 71.7148L59.8558 76.6616L55.4423 77.0957L52.4245 63.1467L41.6501 59.4692L35.8936 63.5904L26.6639 66.8007L26.4453 66.1721L35.0351 63.1843L29.6086 59.1624L35.5908 51.5615L47.8985 52.8324L48.0263 52.7459L53.9877 43.9118ZM47.2196 53.4313L36.5052 52.325L41.6295 58.6138L47.2196 53.4313ZM43.0796 59.2539L48.58 58.5856L51.6644 62.184L43.0796 59.2539ZM53.1797 63.4902L55.5897 74.63L56.5791 65.1392L53.1797 63.4902ZM57.2161 65.4482L56.222 74.9834L58.642 70.222L58.0399 65.8478L57.2161 65.4482ZM57.9308 65.0552L57.2895 64.7441L57.5474 62.27L57.9308 65.0552ZM58.7597 66.197L59.2483 69.7462L62.38 67.953L58.7597 66.197ZM63.1051 68.3048L59.3461 70.4571L60.0835 75.8134L69.3706 71.344L63.1051 68.3048ZM70.4556 70.6333L75.7422 64.1587L70.6228 62.9467L67.3583 65.4394L70.4556 70.6333ZM67.0152 64.864L69.7857 62.7485L65.0908 61.637L67.0152 64.864ZM64.6159 60.8406L70.5261 62.2399L77.1706 59.8311H64.0139L64.6159 60.8406ZM63.239 59.8311L63.7136 60.627L60.3517 59.8311H63.239ZM63.617 59.1656H74.9183L62.4123 57.1454L63.617 59.1656ZM60.6654 55.8363L55.1874 53.3321L56.283 50.2018L60.6654 55.8363ZM55.4844 49.4578L54.7744 48.9845L51.3262 51.3171L55.4844 49.4578ZM47.9293 53.6809L48.3534 57.9428L42.575 58.6448L47.9293 53.6809ZM49.5454 58.6893L52.7652 62.4456L56.6288 59.7089L49.5454 58.6893ZM57.0946 60.1945L56.6525 64.4351L53.3615 62.8388L57.0946 60.1945ZM57.958 60.3726L58.6506 65.4044L63.0989 67.5621L64.8894 66.7735L57.958 60.3726ZM58.6593 60.1143L64.1885 61.4234L66.506 65.3095L65.472 66.4056L58.6593 60.1143ZM58.6153 59.1656H62.8421L61.6533 57.1719L58.6153 59.1656ZM57.6437 59.0072L61.075 56.7553L55.4454 54.1818L57.6437 59.0072ZM54.5527 53.8276L48.5737 53.4356L49.0221 57.9416L56.9465 59.0822L54.5527 53.8276ZM49.5651 52.8336L54.5425 53.16L55.6015 50.1344L49.5651 52.8336ZM65.9609 66.8572L66.8603 65.9037L69.2281 69.8743L65.9609 66.8572ZM68.6693 70.2642L65.4226 67.2659L63.8847 67.9433L68.6693 70.2642ZM54.3954 48.4373L49.5036 51.7466L53.695 45.5354L54.3954 48.4373ZM78.2852 60.1349L76.1782 63.578L71.7074 62.5195L78.2852 60.1349ZM59.8519 75.9249L59.4349 75.9823L58.8011 71.3779L56.2766 76.3449L59.6733 76.0108L59.8519 75.9249ZM41.1139 59.0346L36.0717 62.6444V52.8465L41.1139 59.0346ZM35.4062 52.8721V62.631L30.5553 59.0356L35.4062 52.8721Z" fill="black"/>
<path d="M58.9659 59.4983C58.9659 60.2334 58.37 60.8294 57.6348 60.8294C56.8997 60.8294 56.3038 60.2334 56.3038 59.4983C56.3038 58.7632 56.8997 58.1673 57.6348 58.1673C58.37 58.1673 58.9659 58.7632 58.9659 59.4983Z" fill="black"/>
<path d="M49.7816 58.1673C49.7816 58.7554 49.3049 59.2321 48.7168 59.2321C48.1287 59.2321 47.6519 58.7554 47.6519 58.1673C47.6519 57.5792 48.1287 57.1024 48.7168 57.1024C49.3049 57.1024 49.7816 57.5792 49.7816 58.1673Z" fill="black"/>
<path d="M57.1024 76.7355C57.1024 77.4339 56.5363 78 55.8379 78C55.1396 78 54.5734 77.4339 54.5734 76.7355C54.5734 76.0372 55.1396 75.471 55.8379 75.471C56.5363 75.471 57.1024 76.0372 57.1024 76.7355Z" fill="black"/>
<path d="M71.8772 62.6263C71.8772 63.2512 71.3706 63.7577 70.7458 63.7577C70.1209 63.7577 69.6144 63.2512 69.6144 62.6263C69.6144 62.0015 70.1209 61.4949 70.7458 61.4949C71.3706 61.4949 71.8772 62.0015 71.8772 62.6263Z" fill="black"/>
<path d="M108.836 33.76C108.116 33.76 107.312 33.76 106.424 33.76C105.56 33.76 104.816 33.76 104.192 33.76C103.664 33.76 103.232 33.76 102.896 33.76C102.584 33.76 102.284 33.76 101.996 33.76C101.732 33.76 101.408 33.76 101.024 33.76C100.352 33.76 99.9676 33.868 99.8716 34.084C99.7756 34.3 99.7276 34.744 99.7276 35.416C99.7276 36.04 99.7276 36.592 99.7276 37.072C99.7276 37.552 99.7276 37.996 99.7276 38.404C99.7276 38.812 99.7276 39.232 99.7276 39.664C99.7276 39.784 99.7396 39.916 99.7636 40.06C99.7876 40.18 99.8236 40.3 99.8716 40.42C99.9436 40.516 100.016 40.6 100.088 40.672C100.184 40.744 100.292 40.78 100.412 40.78C100.892 40.78 101.468 40.78 102.14 40.78C102.836 40.78 103.556 40.78 104.3 40.78C105.044 40.78 105.752 40.78 106.424 40.78C107.096 40.78 107.66 40.78 108.116 40.78C108.596 40.78 108.98 40.888 109.268 41.104C109.556 41.32 109.748 41.596 109.844 41.932C109.94 42.244 109.94 42.568 109.844 42.904C109.748 43.216 109.556 43.48 109.268 43.696C108.98 43.912 108.596 44.02 108.116 44.02C107.66 44.02 107.072 44.02 106.352 44.02C105.656 44.02 104.924 44.02 104.156 44.02C103.388 44.02 102.668 44.02 101.996 44.02C101.348 44.02 100.832 44.02 100.448 44.02C100.208 44.02 100.028 44.02 99.9076 44.02C99.7876 44.02 99.7276 44.116 99.7276 44.308C99.7276 45.148 99.7276 45.988 99.7276 46.828C99.7276 47.644 99.7276 48.388 99.7276 49.06C99.7276 49.732 99.7276 50.248 99.7276 50.608C99.7276 51.184 99.7996 51.52 99.9436 51.616C100.088 51.712 100.424 51.76 100.952 51.76C101.6 51.76 102.116 51.76 102.5 51.76C102.884 51.76 103.376 51.76 103.976 51.76C104.528 51.76 105.008 51.76 105.416 51.76C105.848 51.76 106.316 51.76 106.82 51.76C107.348 51.76 108.02 51.76 108.836 51.76C109.436 51.76 109.88 51.928 110.168 52.264C110.48 52.576 110.636 52.948 110.636 53.38C110.636 53.812 110.48 54.196 110.168 54.532C109.88 54.844 109.436 55 108.836 55C108.02 55 107.144 55 106.208 55C105.272 55 104.528 55 103.976 55C103.376 55 102.908 55 102.572 55C102.236 55 101.948 55 101.708 55C101.492 55 101.24 55 100.952 55C99.9916 55 99.1756 54.856 98.5036 54.568C97.8556 54.28 97.3516 53.812 96.9916 53.164C96.6556 52.516 96.4876 51.664 96.4876 50.608C96.4876 50.056 96.4876 49.396 96.4876 48.628C96.4876 47.86 96.4876 47.092 96.4876 46.324C96.4876 45.556 96.4876 44.884 96.4876 44.308C96.4876 43.564 96.6196 42.928 96.8836 42.4C97.1716 41.872 97.6036 41.476 98.1796 41.212C98.7796 40.924 99.5356 40.78 100.448 40.78C101.024 40.78 101.648 40.78 102.32 40.78C103.016 40.78 103.724 40.78 104.444 40.78C105.164 40.78 105.836 40.78 106.46 40.78C107.108 40.78 107.66 40.78 108.116 40.78C108.596 40.78 108.98 40.888 109.268 41.104C109.556 41.32 109.748 41.596 109.844 41.932C109.94 42.244 109.94 42.568 109.844 42.904C109.748 43.216 109.556 43.48 109.268 43.696C108.98 43.912 108.596 44.02 108.116 44.02C107.66 44.02 107.06 44.02 106.316 44.02C105.596 44.02 104.84 44.02 104.048 44.02C103.28 44.02 102.56 44.02 101.888 44.02C101.216 44.02 100.724 44.02 100.412 44.02C99.8596 44.02 99.3436 43.912 98.8636 43.696C98.4076 43.48 97.9996 43.18 97.6396 42.796C97.2796 42.388 96.9916 41.92 96.7756 41.392C96.5836 40.864 96.4876 40.288 96.4876 39.664C96.4876 39.376 96.4876 38.98 96.4876 38.476C96.4876 37.972 96.4876 37.456 96.4876 36.928C96.4876 36.376 96.4876 35.872 96.4876 35.416C96.4876 34.336 96.6316 33.436 96.9196 32.716C97.2316 31.972 97.7116 31.42 98.3596 31.06C99.0316 30.7 99.9196 30.52 101.024 30.52C101.576 30.52 102.02 30.52 102.356 30.52C102.692 30.52 102.992 30.52 103.256 30.52C103.52 30.52 103.832 30.52 104.192 30.52C104.816 30.52 105.332 30.52 105.74 30.52C106.172 30.52 106.616 30.52 107.072 30.52C107.528 30.52 108.116 30.52 108.836 30.52C109.436 30.52 109.892 30.688 110.204 31.024C110.516 31.336 110.672 31.708 110.672 32.14C110.672 32.572 110.516 32.956 110.204 33.292C109.892 33.604 109.436 33.76 108.836 33.76Z" fill="black"/>
<path d="M127.368 59.5C127.368 58.972 127.368 58.48 127.368 58.024C127.368 57.592 127.368 57.148 127.368 56.692C127.368 56.26 127.368 55.792 127.368 55.288C127.368 54.736 127.368 54.172 127.368 53.596C127.368 53.02 127.368 52.408 127.368 51.76C127.368 51.112 127.368 50.404 127.368 49.636C127.368 48.868 127.368 48.016 127.368 47.08C127.368 45.856 127.236 44.8 126.972 43.912C126.732 43 126.384 42.256 125.928 41.68C125.472 41.08 124.908 40.648 124.236 40.384C123.588 40.096 122.844 39.952 122.004 39.952C121.212 39.952 120.48 40.108 119.808 40.42C119.16 40.708 118.596 41.128 118.116 41.68C117.636 42.232 117.252 42.88 116.964 43.624C116.7 44.368 116.568 45.184 116.568 46.072C116.568 46.96 116.7 47.776 116.964 48.52C117.228 49.264 117.6 49.912 118.08 50.464C118.56 50.992 119.124 51.412 119.772 51.724C120.444 52.012 121.176 52.156 121.968 52.156C123.024 52.156 123.96 51.904 124.776 51.4C125.592 50.872 126.228 50.152 126.684 49.24C127.14 48.304 127.368 47.248 127.368 46.072C127.368 45.184 127.368 44.26 127.368 43.3C127.368 42.316 127.368 41.404 127.368 40.564C127.368 39.7 127.368 39.016 127.368 38.512C127.368 37.912 127.524 37.468 127.836 37.18C128.172 36.868 128.556 36.712 128.988 36.712C129.42 36.712 129.792 36.868 130.104 37.18C130.44 37.468 130.608 37.912 130.608 38.512C130.608 39.088 130.608 39.628 130.608 40.132C130.608 40.612 130.608 41.128 130.608 41.68C130.608 42.208 130.608 42.832 130.608 43.552C130.608 44.248 130.608 45.088 130.608 46.072C130.608 47.44 130.392 48.688 129.96 49.816C129.528 50.944 128.916 51.928 128.124 52.768C127.332 53.608 126.408 54.256 125.352 54.712C124.32 55.168 123.192 55.396 121.968 55.396C120.336 55.396 118.86 55 117.54 54.208C116.244 53.392 115.212 52.288 114.444 50.896C113.7 49.48 113.328 47.872 113.328 46.072C113.328 44.704 113.544 43.456 113.976 42.328C114.432 41.176 115.056 40.18 115.848 39.34C116.64 38.5 117.564 37.852 118.62 37.396C119.676 36.94 120.804 36.712 122.004 36.712C123.204 36.712 124.32 36.916 125.352 37.324C126.408 37.732 127.32 38.368 128.088 39.232C128.88 40.072 129.492 41.152 129.924 42.472C130.38 43.768 130.608 45.304 130.608 47.08C130.608 47.704 130.608 48.412 130.608 49.204C130.608 49.996 130.608 50.788 130.608 51.58C130.608 52.348 130.608 53.068 130.608 53.74C130.608 54.388 130.608 54.904 130.608 55.288C130.608 55.696 130.608 56.14 130.608 56.62C130.608 57.124 130.608 57.616 130.608 58.096C130.608 58.6 130.608 59.068 130.608 59.5C130.608 60.1 130.44 60.556 130.104 60.868C129.792 61.18 129.42 61.336 128.988 61.336C128.556 61.336 128.172 61.18 127.836 60.868C127.524 60.556 127.368 60.1 127.368 59.5Z" fill="black"/>
<path d="M138.239 38.512C138.239 39.352 138.239 40.264 138.239 41.248C138.239 42.232 138.239 43.252 138.239 44.308C138.239 45.364 138.239 46.444 138.239 47.548C138.239 48.556 138.383 49.408 138.671 50.104C138.983 50.776 139.439 51.292 140.039 51.652C140.639 51.988 141.371 52.156 142.235 52.156C143.027 52.156 143.759 52.024 144.431 51.76C145.127 51.472 145.727 51.088 146.231 50.608C146.735 50.128 147.119 49.576 147.383 48.952C147.671 48.328 147.815 47.656 147.815 46.936C147.815 46.648 147.815 46.168 147.815 45.496C147.815 44.824 147.815 44.068 147.815 43.228C147.815 42.388 147.815 41.548 147.815 40.708C147.815 39.868 147.815 39.136 147.815 38.512C147.815 38.032 147.923 37.648 148.139 37.36C148.355 37.072 148.619 36.88 148.931 36.784C149.267 36.688 149.591 36.688 149.903 36.784C150.239 36.88 150.515 37.072 150.731 37.36C150.947 37.648 151.055 38.032 151.055 38.512C151.055 39.16 151.055 39.988 151.055 40.996C151.055 41.98 151.055 43.024 151.055 44.128C151.055 45.232 151.055 46.264 151.055 47.224C151.055 48.184 151.055 48.94 151.055 49.492C151.055 50.068 151.055 50.572 151.055 51.004C151.055 51.436 151.055 51.856 151.055 52.264C151.055 52.648 151.055 53.104 151.055 53.632C151.055 54.232 150.887 54.688 150.551 55C150.239 55.288 149.867 55.432 149.435 55.432C149.003 55.432 148.619 55.288 148.283 55C147.971 54.688 147.815 54.232 147.815 53.632C147.815 53.08 147.815 52.564 147.815 52.084C147.815 51.604 147.815 51.148 147.815 50.716C147.815 50.284 147.815 49.876 147.815 49.492C147.815 48.676 147.815 47.776 147.815 46.792C147.815 45.784 147.815 44.764 147.815 43.732C147.815 42.7 147.815 41.728 147.815 40.816C147.815 39.904 147.815 39.136 147.815 38.512C147.815 38.032 147.923 37.648 148.139 37.36C148.355 37.072 148.619 36.88 148.931 36.784C149.267 36.688 149.591 36.688 149.903 36.784C150.239 36.88 150.515 37.072 150.731 37.36C150.947 37.648 151.055 38.032 151.055 38.512C151.055 39.16 151.055 39.88 151.055 40.672C151.055 41.464 151.055 42.256 151.055 43.048C151.055 43.84 151.055 44.584 151.055 45.28C151.055 45.952 151.055 46.504 151.055 46.936C151.055 48.064 150.827 49.144 150.371 50.176C149.939 51.184 149.327 52.084 148.535 52.876C147.743 53.644 146.807 54.256 145.727 54.712C144.671 55.168 143.507 55.396 142.235 55.396C140.819 55.396 139.559 55.096 138.455 54.496C137.375 53.872 136.523 52.972 135.899 51.796C135.299 50.62 134.999 49.204 134.999 47.548C134.999 46.636 134.999 45.64 134.999 44.56C134.999 43.48 134.999 42.412 134.999 41.356C134.999 40.276 134.999 39.328 134.999 38.512C134.999 37.912 135.155 37.468 135.467 37.18C135.803 36.868 136.187 36.712 136.619 36.712C137.051 36.712 137.423 36.868 137.735 37.18C138.071 37.468 138.239 37.912 138.239 38.512Z" fill="black"/>
<path d="M172.092 38.728C172.092 39.352 172.092 39.928 172.092 40.456C172.092 40.984 172.092 41.548 172.092 42.148C172.092 42.724 172.092 43.396 172.092 44.164C172.092 44.908 172.092 45.796 172.092 46.828C172.092 48.196 171.876 49.408 171.444 50.464C171.012 51.52 170.4 52.42 169.608 53.164C168.84 53.884 167.928 54.436 166.872 54.82C165.84 55.204 164.712 55.396 163.488 55.396C162.264 55.396 161.124 55.168 160.068 54.712C159.012 54.256 158.088 53.608 157.296 52.768C156.504 51.928 155.892 50.944 155.46 49.816C155.028 48.664 154.812 47.404 154.812 46.036C154.812 44.212 155.184 42.604 155.928 41.212C156.696 39.796 157.728 38.692 159.024 37.9C160.344 37.108 161.82 36.712 163.452 36.712C164.676 36.712 165.804 36.94 166.836 37.396C167.892 37.828 168.804 38.464 169.572 39.304C170.364 40.12 170.976 41.092 171.408 42.22C171.864 43.348 172.092 44.596 172.092 45.964C172.092 46.516 172.092 47.056 172.092 47.584C172.092 48.088 172.092 48.58 172.092 49.06C172.092 49.516 172.092 49.948 172.092 50.356C172.092 51.004 172.092 51.604 172.092 52.156C172.092 52.708 172.092 53.308 172.092 53.956C172.092 54.556 171.924 55.012 171.588 55.324C171.276 55.636 170.904 55.792 170.472 55.792C170.04 55.792 169.656 55.636 169.32 55.324C169.008 55.012 168.852 54.556 168.852 53.956C168.852 53.572 168.852 53.176 168.852 52.768C168.852 52.36 168.852 51.964 168.852 51.58C168.852 51.172 168.852 50.764 168.852 50.356C168.852 50.092 168.852 49.684 168.852 49.132C168.852 48.556 168.852 47.98 168.852 47.404C168.852 46.804 168.852 46.324 168.852 45.964C168.852 44.788 168.624 43.744 168.168 42.832C167.712 41.92 167.076 41.212 166.26 40.708C165.444 40.204 164.508 39.952 163.452 39.952C162.66 39.952 161.928 40.108 161.256 40.42C160.584 40.708 160.008 41.128 159.528 41.68C159.072 42.208 158.712 42.844 158.448 43.588C158.184 44.332 158.052 45.148 158.052 46.036C158.052 46.924 158.184 47.74 158.448 48.484C158.712 49.228 159.084 49.876 159.564 50.428C160.044 50.98 160.62 51.412 161.292 51.724C161.964 52.012 162.696 52.156 163.488 52.156C164.28 52.156 165 52.048 165.648 51.832C166.32 51.616 166.896 51.292 167.376 50.86C167.856 50.404 168.216 49.84 168.456 49.168C168.72 48.496 168.852 47.716 168.852 46.828C168.852 46.132 168.852 45.4 168.852 44.632C168.852 43.864 168.852 43.108 168.852 42.364C168.852 41.62 168.852 40.936 168.852 40.312C168.852 39.664 168.852 39.136 168.852 38.728C168.852 38.128 169.008 37.672 169.32 37.36C169.656 37.048 170.04 36.892 170.472 36.892C170.904 36.892 171.276 37.048 171.588 37.36C171.924 37.672 172.092 38.128 172.092 38.728Z" fill="black"/>
<path d="M189.588 53.56C189.588 53.056 189.588 52.528 189.588 51.976C189.588 51.4 189.588 50.836 189.588 50.284C189.588 49.708 189.588 49.18 189.588 48.7C189.588 48.124 189.588 47.488 189.588 46.792C189.588 46.072 189.588 45.292 189.588 44.452C189.588 43.444 189.42 42.616 189.084 41.968C188.772 41.296 188.304 40.792 187.68 40.456C187.056 40.12 186.288 39.952 185.376 39.952C184.584 39.952 183.864 40.084 183.216 40.348C182.568 40.588 182.004 40.948 181.524 41.428C181.068 41.908 180.708 42.508 180.444 43.228C180.18 43.948 180.048 44.776 180.048 45.712C180.048 46.12 180.048 46.66 180.048 47.332C180.048 47.98 180.048 48.676 180.048 49.42C180.048 50.164 180.048 50.908 180.048 51.652C180.048 52.372 180.048 53.008 180.048 53.56C180.048 54.04 179.94 54.436 179.724 54.748C179.508 55.036 179.232 55.228 178.896 55.324C178.584 55.42 178.26 55.42 177.924 55.324C177.612 55.228 177.348 55.036 177.132 54.748C176.916 54.436 176.808 54.04 176.808 53.56C176.808 53.104 176.808 52.492 176.808 51.724C176.808 50.932 176.808 50.08 176.808 49.168C176.808 48.232 176.808 47.332 176.808 46.468C176.808 45.58 176.808 44.812 176.808 44.164C176.808 43.516 176.808 43.072 176.808 42.832C176.808 42.352 176.808 41.872 176.808 41.392C176.808 40.912 176.808 40.432 176.808 39.952C176.808 39.472 176.808 38.992 176.808 38.512C176.808 37.912 176.964 37.456 177.276 37.144C177.612 36.832 177.996 36.676 178.428 36.676C178.86 36.676 179.232 36.832 179.544 37.144C179.88 37.456 180.048 37.912 180.048 38.512C180.048 39.04 180.048 39.532 180.048 39.988C180.048 40.444 180.048 40.9 180.048 41.356C180.048 41.812 180.048 42.304 180.048 42.832C180.048 42.976 180.048 43.372 180.048 44.02C180.048 44.644 180.048 45.412 180.048 46.324C180.048 47.212 180.048 48.136 180.048 49.096C180.048 50.032 180.048 50.908 180.048 51.724C180.048 52.516 180.048 53.128 180.048 53.56C180.048 54.04 179.94 54.436 179.724 54.748C179.508 55.036 179.232 55.228 178.896 55.324C178.584 55.42 178.26 55.42 177.924 55.324C177.612 55.228 177.348 55.036 177.132 54.748C176.916 54.436 176.808 54.04 176.808 53.56C176.808 53.008 176.808 52.432 176.808 51.832C176.808 51.208 176.808 50.572 176.808 49.924C176.808 49.276 176.808 48.628 176.808 47.98C176.808 47.308 176.808 46.672 176.808 46.072C176.808 44.848 177.024 43.672 177.456 42.544C177.912 41.416 178.536 40.42 179.328 39.556C180.12 38.668 181.056 37.972 182.136 37.468C183.216 36.964 184.38 36.712 185.628 36.712C186.66 36.712 187.608 36.88 188.472 37.216C189.36 37.552 190.128 38.056 190.776 38.728C191.424 39.376 191.928 40.18 192.288 41.14C192.648 42.1 192.828 43.204 192.828 44.452C192.828 45.004 192.828 45.64 192.828 46.36C192.828 47.056 192.828 47.836 192.828 48.7C192.828 49.3 192.828 49.864 192.828 50.392C192.828 50.896 192.828 51.4 192.828 51.904C192.828 52.408 192.828 52.96 192.828 53.56C192.828 54.16 192.66 54.616 192.324 54.928C192.012 55.24 191.64 55.396 191.208 55.396C190.776 55.396 190.392 55.24 190.056 54.928C189.744 54.616 189.588 54.16 189.588 53.56Z" fill="black"/>
<path d="M198.965 53.56C198.965 52.984 198.965 52.468 198.965 52.012C198.965 51.556 198.965 51.1 198.965 50.644C198.965 50.188 198.965 49.66 198.965 49.06C198.965 48.268 198.965 47.512 198.965 46.792C198.965 46.048 198.965 45.28 198.965 44.488C198.965 43.672 198.965 42.772 198.965 41.788C198.965 40.804 198.965 39.652 198.965 38.332C198.965 37.828 198.965 37.3 198.965 36.748C198.965 36.196 198.965 35.668 198.965 35.164C198.965 34.636 198.965 34.192 198.965 33.832C198.965 33.232 199.121 32.776 199.433 32.464C199.769 32.152 200.153 31.996 200.585 31.996C201.017 31.996 201.389 32.152 201.701 32.464C202.037 32.776 202.205 33.232 202.205 33.832C202.205 34.24 202.205 34.6 202.205 34.912C202.205 35.224 202.205 35.536 202.205 35.848C202.205 36.16 202.205 36.52 202.205 36.928C202.205 37.312 202.205 37.78 202.205 38.332C202.205 39.22 202.205 40.06 202.205 40.852C202.205 41.62 202.205 42.412 202.205 43.228C202.205 44.044 202.205 44.92 202.205 45.856C202.205 46.792 202.205 47.86 202.205 49.06C202.205 49.708 202.205 50.248 202.205 50.68C202.205 51.112 202.205 51.544 202.205 51.976C202.205 52.384 202.205 52.912 202.205 53.56C202.205 54.16 202.037 54.616 201.701 54.928C201.389 55.24 201.017 55.396 200.585 55.396C200.153 55.396 199.769 55.252 199.433 54.964C199.121 54.652 198.965 54.184 198.965 53.56ZM204.761 40.312C204.401 40.312 204.053 40.312 203.717 40.312C203.381 40.312 203.045 40.312 202.709 40.312C201.989 40.312 201.317 40.312 200.693 40.312C200.093 40.312 199.433 40.312 198.713 40.312C198.497 40.312 198.293 40.312 198.101 40.312C197.909 40.312 197.693 40.312 197.453 40.312C197.237 40.312 197.009 40.312 196.769 40.312C196.169 40.312 195.713 40.156 195.401 39.844C195.089 39.508 194.933 39.124 194.933 38.692C194.933 38.26 195.089 37.888 195.401 37.576C195.713 37.24 196.169 37.072 196.769 37.072C197.081 37.072 197.333 37.072 197.525 37.072C197.717 37.072 197.897 37.072 198.065 37.072C198.257 37.072 198.473 37.072 198.713 37.072C199.385 37.072 200.045 37.072 200.693 37.072C201.365 37.072 202.037 37.072 202.709 37.072C203.093 37.072 203.429 37.072 203.717 37.072C204.029 37.072 204.377 37.072 204.761 37.072C205.361 37.072 205.817 37.24 206.129 37.576C206.441 37.888 206.597 38.26 206.597 38.692C206.597 39.124 206.441 39.508 206.129 39.844C205.817 40.156 205.361 40.312 204.761 40.312Z" fill="black"/>
<path d="M218.439 40.204C217.335 40.036 216.399 40.072 215.631 40.312C214.863 40.528 214.239 40.9 213.759 41.428C213.303 41.932 212.967 42.544 212.751 43.264C212.535 43.984 212.427 44.764 212.427 45.604C212.427 46.156 212.427 46.792 212.427 47.512C212.427 48.232 212.427 48.964 212.427 49.708C212.427 50.452 212.427 51.16 212.427 51.832C212.427 52.504 212.427 53.08 212.427 53.56C212.427 54.04 212.319 54.424 212.103 54.712C211.887 55 211.611 55.192 211.275 55.288C210.963 55.408 210.639 55.42 210.303 55.324C209.991 55.228 209.727 55.036 209.511 54.748C209.295 54.436 209.187 54.04 209.187 53.56C209.187 53.056 209.187 52.432 209.187 51.688C209.187 50.92 209.187 50.128 209.187 49.312C209.187 48.472 209.187 47.68 209.187 46.936C209.187 46.192 209.187 45.592 209.187 45.136C209.187 44.464 209.187 43.756 209.187 43.012C209.187 42.268 209.187 41.524 209.187 40.78C209.187 40.012 209.187 39.304 209.187 38.656C209.187 38.032 209.343 37.576 209.655 37.288C209.991 36.976 210.375 36.82 210.807 36.82C211.239 36.82 211.611 36.976 211.923 37.288C212.259 37.6 212.427 38.056 212.427 38.656C212.427 39.448 212.427 40.192 212.427 40.888C212.427 41.56 212.427 42.244 212.427 42.94C212.427 43.612 212.427 44.344 212.427 45.136C212.427 45.448 212.427 45.964 212.427 46.684C212.427 47.404 212.427 48.208 212.427 49.096C212.427 49.984 212.427 50.836 212.427 51.652C212.427 52.444 212.427 53.08 212.427 53.56C212.427 54.04 212.319 54.424 212.103 54.712C211.887 55 211.611 55.192 211.275 55.288C210.963 55.408 210.639 55.42 210.303 55.324C209.991 55.228 209.727 55.036 209.511 54.748C209.295 54.436 209.187 54.04 209.187 53.56C209.187 52.888 209.187 52.072 209.187 51.112C209.187 50.152 209.187 49.228 209.187 48.34C209.187 47.452 209.187 46.78 209.187 46.324C209.187 45.292 209.307 44.284 209.547 43.3C209.811 42.316 210.195 41.404 210.699 40.564C211.203 39.724 211.839 39.004 212.607 38.404C213.375 37.804 214.275 37.372 215.307 37.108C216.363 36.844 217.551 36.796 218.871 36.964C219.471 37.06 219.903 37.288 220.167 37.648C220.431 38.008 220.527 38.404 220.455 38.836C220.407 39.268 220.203 39.628 219.843 39.916C219.507 40.18 219.039 40.276 218.439 40.204Z" fill="black"/>
<path d="M239.311 38.728C239.311 39.352 239.311 39.928 239.311 40.456C239.311 40.984 239.311 41.548 239.311 42.148C239.311 42.724 239.311 43.396 239.311 44.164C239.311 44.908 239.311 45.796 239.311 46.828C239.311 48.196 239.095 49.408 238.663 50.464C238.231 51.52 237.619 52.42 236.827 53.164C236.059 53.884 235.147 54.436 234.091 54.82C233.059 55.204 231.931 55.396 230.707 55.396C229.483 55.396 228.343 55.168 227.287 54.712C226.231 54.256 225.307 53.608 224.515 52.768C223.723 51.928 223.111 50.944 222.679 49.816C222.247 48.664 222.031 47.404 222.031 46.036C222.031 44.212 222.403 42.604 223.147 41.212C223.915 39.796 224.947 38.692 226.243 37.9C227.563 37.108 229.039 36.712 230.671 36.712C231.895 36.712 233.023 36.94 234.055 37.396C235.111 37.828 236.023 38.464 236.791 39.304C237.583 40.12 238.195 41.092 238.627 42.22C239.083 43.348 239.311 44.596 239.311 45.964C239.311 46.516 239.311 47.056 239.311 47.584C239.311 48.088 239.311 48.58 239.311 49.06C239.311 49.516 239.311 49.948 239.311 50.356C239.311 51.004 239.311 51.604 239.311 52.156C239.311 52.708 239.311 53.308 239.311 53.956C239.311 54.556 239.143 55.012 238.807 55.324C238.495 55.636 238.123 55.792 237.691 55.792C237.259 55.792 236.875 55.636 236.539 55.324C236.227 55.012 236.071 54.556 236.071 53.956C236.071 53.572 236.071 53.176 236.071 52.768C236.071 52.36 236.071 51.964 236.071 51.58C236.071 51.172 236.071 50.764 236.071 50.356C236.071 50.092 236.071 49.684 236.071 49.132C236.071 48.556 236.071 47.98 236.071 47.404C236.071 46.804 236.071 46.324 236.071 45.964C236.071 44.788 235.843 43.744 235.387 42.832C234.931 41.92 234.295 41.212 233.479 40.708C232.663 40.204 231.727 39.952 230.671 39.952C229.879 39.952 229.147 40.108 228.475 40.42C227.803 40.708 227.227 41.128 226.747 41.68C226.291 42.208 225.931 42.844 225.667 43.588C225.403 44.332 225.271 45.148 225.271 46.036C225.271 46.924 225.403 47.74 225.667 48.484C225.931 49.228 226.303 49.876 226.783 50.428C227.263 50.98 227.839 51.412 228.511 51.724C229.183 52.012 229.915 52.156 230.707 52.156C231.499 52.156 232.219 52.048 232.867 51.832C233.539 51.616 234.115 51.292 234.595 50.86C235.075 50.404 235.435 49.84 235.675 49.168C235.939 48.496 236.071 47.716 236.071 46.828C236.071 46.132 236.071 45.4 236.071 44.632C236.071 43.864 236.071 43.108 236.071 42.364C236.071 41.62 236.071 40.936 236.071 40.312C236.071 39.664 236.071 39.136 236.071 38.728C236.071 38.128 236.227 37.672 236.539 37.36C236.875 37.048 237.259 36.892 237.691 36.892C238.123 36.892 238.495 37.048 238.807 37.36C239.143 37.672 239.311 38.128 239.311 38.728Z" fill="black"/>
</svg>
