<svg width="240" height="235" viewBox="0 0 240 235" fill="none" xmlns="http://www.w3.org/2000/svg">
<path d="M96.8472 136.148C95.7778 134.945 94.04 134.142 94.04 130.533C94.04 126.924 92.035 109.078 94.04 109.078H102.863L126.724 117.5L134.143 113.891C134.143 113.891 153.592 100.858 166.425 85.6186C170.728 80.5092 178.77 73.7884 188.481 57.948C198.193 42.1075 211.139 0 211.139 0L212.944 45.7167L219.344 21.2543L215.35 62.1587L220.563 42.1075C220.563 42.1075 216.466 73.2697 215.421 76.7792C216.491 73.8668 220.563 57.948 220.563 57.948C220.563 57.948 220.747 73.1869 219.344 76.9966C217.94 80.8063 204.322 94.2406 204.322 94.2406L219.344 82.6109C219.344 82.6109 214.347 94.2406 211.139 100.256C207.931 106.271 206.728 108.878 198.507 117.299C190.286 125.721 183.067 130.533 177.654 134.544C172.24 138.554 164.62 146.574 164.62 146.574L161.613 134.544V149.782L144.569 160.41L107.474 157.602L90.8319 177.253C90.8319 177.253 82.8114 201.515 79.2022 201.515H20.0512C13.4996 201.515 8.52061 196.01 4.72493 191.815L4.61178 191.689C0.802048 187.479 0 182.065 0 182.065L24.0614 186.877L14.2363 182.065H26.6681C32.4829 182.065 43.5111 178.456 54.1382 173.844C64.7654 169.232 74.1894 163.818 81.0068 157.602C87.8242 151.387 96.8472 136.148 96.8472 136.148Z" fill="white"/>
<path fill-rule="evenodd" clip-rule="evenodd" d="M162.655 132.298L165.904 145.757L169.924 148.437L186.624 169.909L239.843 178.506L230.807 193.273L213.221 214.812L213.223 214.814L212.105 216.452L211.304 216.064L180.335 230.968L167.038 232.275L157.945 190.25L125.484 179.17L108.141 191.586L80.3336 201.258L79.6749 199.365L105.554 190.363L89.2053 178.246L107.229 155.345L144.309 159.174L144.695 158.914L162.655 132.298ZM142.264 160.979L109.984 157.646L125.422 176.593L142.264 160.979ZM129.791 178.521L146.363 176.508L155.655 187.349L129.791 178.521ZM160.221 191.285L167.482 224.847L170.463 196.253L160.221 191.285ZM172.382 197.184L169.387 225.911L176.678 211.566L174.864 198.387L172.382 197.184ZM174.535 195.999L172.603 195.062L173.38 187.608L174.535 195.999ZM177.032 199.439L178.504 210.133L187.94 204.73L177.032 199.439ZM190.124 205.79L178.799 212.274L181.021 228.412L209.001 214.947L190.124 205.79ZM212.27 212.805L228.198 193.299L212.774 189.647L202.938 197.157L212.27 212.805ZM201.905 195.424L210.252 189.05L196.107 185.701L201.905 195.424ZM194.676 183.302L212.482 187.517L232.501 180.26H192.862L194.676 183.302ZM190.528 180.26L191.958 182.658L181.829 180.26H190.528ZM191.667 178.255H225.715L188.037 172.169L191.667 178.255ZM182.774 168.225L166.27 160.68L169.57 151.249L182.774 168.225ZM167.164 149.007L165.025 147.581L154.637 154.609L167.164 149.007ZM144.402 161.731L145.68 174.571L128.271 176.686L144.402 161.731ZM149.271 176.82L158.972 188.137L170.612 179.892L149.271 176.82ZM172.016 181.355L170.684 194.131L160.769 189.322L172.016 181.355ZM174.617 181.892L176.704 197.051L190.106 203.552L195.5 201.177L174.617 181.892ZM176.73 181.114L193.388 185.058L200.37 196.766L197.255 200.068L176.73 181.114ZM176.597 178.255H189.332L185.75 172.249L176.597 178.255ZM173.67 177.778L184.008 170.994L167.047 163.24L173.67 177.778ZM164.358 162.173L146.344 160.992L147.695 174.567L171.57 178.004L164.358 162.173ZM149.331 159.178L164.327 160.161L167.517 151.046L149.331 159.178ZM198.728 201.429L201.438 198.556L208.572 210.519L198.728 201.429ZM206.888 211.693L197.106 202.66L192.473 204.701L206.888 211.693ZM163.884 145.933L149.145 155.903L161.773 137.19L163.884 145.933ZM235.859 181.176L229.511 191.549L216.041 188.36L235.859 181.176ZM180.323 228.748L179.067 228.921L177.157 215.049L169.551 230.013L179.785 229.007L180.323 228.748ZM123.869 177.861L108.677 188.736V159.217L123.869 177.861ZM106.672 159.294V188.696L92.0575 177.864L106.672 159.294Z" fill="white"/>
<path d="M177.654 179.258C177.654 181.472 175.858 183.268 173.643 183.268C171.429 183.268 169.633 181.472 169.633 179.258C169.633 177.043 171.429 175.247 173.643 175.247C175.858 175.247 177.654 177.043 177.654 179.258Z" fill="white"/>
<path d="M149.983 175.247C149.983 177.019 148.547 178.456 146.775 178.456C145.003 178.456 143.567 177.019 143.567 175.247C143.567 173.476 145.003 172.039 146.775 172.039C148.547 172.039 149.983 173.476 149.983 175.247Z" fill="white"/>
<path d="M172.039 231.19C172.039 233.294 170.334 235 168.23 235C166.125 235 164.42 233.294 164.42 231.19C164.42 229.086 166.125 227.381 168.23 227.381C170.334 227.381 172.039 229.086 172.039 231.19Z" fill="white"/>
<path d="M216.553 188.682C216.553 190.564 215.027 192.09 213.144 192.09C211.262 192.09 209.736 190.564 209.736 188.682C209.736 186.799 211.262 185.273 213.144 185.273C215.027 185.273 216.553 186.799 216.553 188.682Z" fill="white"/>
</svg>
