<svg width="1743" height="102" viewBox="0 0 1743 102" fill="none" xmlns="http://www.w3.org/2000/svg">
<path d="M0 0H1743V15H0V0Z" fill="black"/>
<path d="M1 0C0.447715 0 0 0.447715 0 1V14.0316C0 14.5839 0.447665 15.0316 0.99995 15.0316H565.917C580.684 15.0316 591 36.2327 591 51C591 79.1665 613.833 102 642 102H1102C1130.17 102 1153 79.1665 1153 51C1153 36.2327 1163.32 15.0316 1178.08 15.0316H1742C1742.55 15.0316 1743 14.5839 1743 14.0316V1C1743 0.447715 1742.55 0 1742 0H1Z" fill="black"/>
</svg>
