<svg width="1728" height="102" viewBox="0 0 1728 102" fill="none" xmlns="http://www.w3.org/2000/svg">
<path fill-rule="evenodd" clip-rule="evenodd" d="M-0.484208 0C-4.63507 0 -8 3.36493 -8 7.51579C-8 11.6666 -4.63508 15.0316 -0.484221 15.0316H557.917C572.684 15.0316 583 36.2327 583 51V51C583 79.1665 605.833 102 634 102H1094C1122.17 102 1145 79.1665 1145 51V51C1145 36.2327 1155.32 15.0316 1170.08 15.0316H1727.48C1731.64 15.0316 1735 11.6666 1735 7.51579C1735 3.36493 1731.64 0 1727.48 0H1094H634H-0.484208Z" fill="black"/>
</svg>
