<svg width="72" height="861" viewBox="0 0 72 861" fill="none" xmlns="http://www.w3.org/2000/svg">
<path d="M0 8L26 9L64.5 25.5V800L0 851.5V8Z" fill="black"/>
<path fill-rule="evenodd" clip-rule="evenodd" d="M46.1943 19.1718C35.2457 12.0493 16.5801 8.74165 0.135538 7.99169V0C17.1964 0.778059 37.8817 4.22033 50.5567 12.4659C63.4938 20.8819 71.811 34.1315 71.811 53.4958C71.811 62.1347 71.7485 80.0848 71.6615 105.054C71.3854 184.272 70.8632 334.141 71.311 481.484C71.552 560.761 71.4271 636.039 70.6163 693.568C70.211 722.329 69.6339 746.683 68.8438 764.894C68.4488 773.996 67.9992 781.599 67.4875 787.466C66.9879 793.196 66.4033 797.634 65.6391 800.156C64.8146 802.877 63.0941 805.722 61.0218 808.492C58.9097 811.316 56.2395 814.312 53.2613 817.351C47.3032 823.429 39.8966 829.892 32.7227 835.776C25.5352 841.671 18.5145 847.039 13.2955 850.929C10.6843 852.876 8.52026 854.456 7.00687 855.55C6.25009 856.098 5.65577 856.524 5.24936 856.814C5.04615 856.959 4.88989 857.071 4.78376 857.146L4.63091 857.254C4.63091 857.254 4.3115 857.496 2.81153 858.496C1.31156 859.496 0.000142934 860.341 0.000142934 860.341C0.000142934 860.341 -0.000114778 857.496 6.18905e-05 853.996L0.00113831 852.996C0.00211487 850.929 0.00324192 850.729 0.00324192 850.729L0.00459876 850.728L0.0110165 850.723L0.0385393 850.704L0.151291 850.624C0.25171 850.552 0.402094 850.445 0.59927 850.305C0.993638 850.023 1.57511 849.606 2.31833 849.068C3.80493 847.993 5.93772 846.436 8.51406 844.515C13.6701 840.672 20.5869 835.383 27.6494 829.591C34.7255 823.787 41.8813 817.532 47.5482 811.75C50.3825 808.859 52.7904 806.141 54.6158 803.7C56.4811 801.207 57.5574 799.24 57.9829 797.836C58.4688 796.232 59.0086 792.61 59.5178 786.771C60.015 781.07 60.4586 773.598 60.8513 764.547C61.6364 746.452 62.2122 722.189 62.6171 693.456C63.4269 635.996 63.552 560.773 63.311 481.508C62.8631 334.125 63.3857 184.14 63.6617 104.948C63.7486 80.0182 63.811 62.1042 63.811 53.4958C63.811 36.8601 56.8809 26.1238 46.1943 19.1718Z" fill="#917AFF"/>
</svg>
