<svg width="649" height="547" viewBox="0 0 649 547" fill="none" xmlns="http://www.w3.org/2000/svg">
<path d="M148.023 19.1881C147.189 17.3805 146.771 15.1558 147.05 14.3216C147.328 13.3482 148.023 12.514 148.58 12.514C149.136 12.514 150.667 14.3216 152.058 16.6853C153.31 18.91 154.423 21.1347 154.423 21.5519C154.423 21.969 153.31 22.2471 152.058 22.2471C150.667 22.2471 148.858 20.8566 148.023 19.1881Z" fill="black"/>
<path d="M155.119 31.9802C156.51 31.9802 157.066 30.8678 156.927 28.6431C156.649 26.1403 156.927 25.5841 158.597 26.4184C159.709 27.1136 162.074 29.0602 163.605 30.8678C165.274 32.5363 167.083 36.1515 167.5 38.6543C168.196 42.2694 167.918 43.2428 165.552 43.7989C164.022 44.2161 162.492 46.0236 162.074 47.9703C161.657 49.9169 162.074 52.4197 162.77 53.532C163.744 55.0615 163.605 56.591 162.074 59.0938C160.544 61.5966 159.153 62.4309 156.927 61.8747C154.794 61.4112 152.475 62.3382 149.971 64.6556C147.745 66.6022 146.354 68.8269 146.771 69.5221C147.189 70.2173 146.91 70.9126 146.076 70.9126C145.38 70.9126 144.267 71.0516 143.711 71.3297C143.015 71.4687 141.763 72.164 140.928 72.7201C139.955 73.2763 138.563 73.4154 137.729 72.9982C137.033 72.5811 136.337 71.4687 136.337 70.6345C136.337 69.3831 134.668 68.9659 131.051 69.3831C128.268 69.6612 125.069 70.3564 124.234 71.0516C123.121 71.7468 121.173 71.6078 119.365 70.6345C117.556 69.8002 114.357 67.0193 111.992 64.5165C109.766 62.0137 108.792 60.2062 109.905 60.6233C111.018 61.0404 112.965 60.3452 114.078 59.0938C115.191 57.8424 117.695 56.8691 119.643 57.0081C121.591 57.0081 124.095 57.9814 125.208 59.2328C126.599 60.6233 128.686 61.0404 131.886 60.6233C135.364 59.9281 136.337 59.0938 136.337 56.73C136.337 54.9225 137.589 52.6978 139.398 51.5854C141.207 50.6121 143.989 50.0559 145.798 50.6121C148.163 51.3073 149.415 50.6121 150.945 47.9703C152.614 45.1894 152.753 43.938 151.362 41.8523C149.971 39.6276 149.971 38.3762 151.362 35.5953C152.197 33.6487 154.006 31.9802 155.119 31.9802Z" fill="black"/>
<path d="M97.384 54.9225C95.1581 52.2806 93.2104 49.7778 93.2104 49.3607C93.2104 48.9436 94.3234 48.6655 95.7145 48.6655C96.9666 48.6655 99.6099 49.9169 101.558 51.3073C103.923 53.1149 104.757 54.6444 104.062 56.1739C103.366 57.5643 103.644 58.6767 104.757 58.9548C105.592 59.3719 105.314 59.65 104.062 59.65C102.671 59.789 99.749 57.5643 97.384 54.9225Z" fill="black"/>
<path d="M458.816 73.8325L462.711 71.0516C466.329 68.2707 467.998 68.1317 521.976 68.1317C552.443 68.1317 578.32 68.5488 579.572 69.244C580.824 69.8002 582.771 71.8859 583.745 74.1106C584.997 76.4743 585.693 82.8704 585.693 92.1863C585.693 99.9728 585.276 116.38 584.719 128.616C583.884 147.387 583.328 151.28 581.241 153.366C578.876 155.59 574.146 155.73 521.698 155.73C466.468 155.73 464.52 155.59 461.877 152.949C459.233 150.307 459.094 148.221 458.816 73.8325Z" fill="black"/>
<path d="M107.957 118.883C108.514 116.519 109.209 114.294 109.487 113.738C109.766 113.043 110.739 112.626 111.574 112.626C112.409 112.626 113.383 114.016 113.522 115.824C113.8 117.492 114.078 120.273 114.078 122.081C114.078 123.749 113.244 125.14 112.409 125.14C111.435 125.14 109.766 124.584 108.792 124.027C107.586 123.379 107.308 121.664 107.957 118.883Z" fill="black"/>
<path d="M106.288 136.68C109.07 135.985 110.879 134.317 111.852 131.814C112.548 129.589 113.661 127.921 114.357 127.921C114.913 127.921 116.861 130.563 118.391 133.9C120.895 138.905 121.173 140.435 119.782 145.023C118.53 149.194 117.417 150.307 113.8 151.28C111.435 151.836 108.096 154.061 106.288 156.425C103.923 159.484 103.505 161.291 104.479 163.099C105.175 164.35 105.731 165.602 105.731 165.88C105.87 166.019 103.505 167.826 100.584 169.912C96.8275 172.554 94.3234 173.527 91.8192 172.971C89.7324 172.415 86.2544 173.11 83.0547 174.64C80.1332 176.169 77.4899 178.394 77.2117 179.784C76.7943 181.036 75.4031 182.704 74.151 183.399C72.7598 183.956 69.5601 184.929 67.1951 185.485C63.4389 186.18 62.465 185.763 61.6303 183.538C60.7956 181.731 58.987 180.758 55.3699 180.479C52.0311 180.201 48.8313 180.897 47.0228 182.287C43.9621 184.512 43.5448 184.512 39.9277 181.592C37.7018 179.923 36.1715 177.281 36.1715 175.613C36.1715 173.527 35.1976 172.137 33.3891 171.72C31.8588 171.302 30.6067 170.468 30.6067 169.634C30.6067 168.8 29.3546 168.244 27.8243 168.244C25.8766 168.244 24.0681 166.158 18.0859 154.339H22.2595C24.6245 154.339 27.5461 155.312 28.9372 156.564C30.8849 158.371 31.024 159.206 29.6328 162.126C28.659 163.933 27.8243 165.602 27.8243 165.88C27.6852 166.019 29.6328 166.992 31.9979 167.965C35.4759 169.356 36.7279 169.217 39.6494 167.548C41.5971 166.436 45.6316 165.463 48.6922 165.463C53.144 165.463 54.3961 166.019 54.9526 168.244C55.509 170.607 56.4829 170.885 60.9347 170.19C63.7171 169.773 66.9168 168.661 67.8907 167.826C68.8645 166.853 69.9775 165.185 70.2557 164.072C70.6731 162.96 73.5946 160.874 76.7943 159.623C80.1332 158.232 84.1676 157.537 85.9762 157.815C87.9239 158.232 90.8454 157.259 93.906 155.034C97.9405 152.114 98.4969 151.141 97.384 148.777C96.271 146.553 96.6884 145.023 99.1925 141.825C100.862 139.6 104.062 137.237 106.288 136.68Z" fill="black"/>
<path d="M547.852 218.439L551.748 215.658C555.365 212.877 557.174 212.738 599.188 212.738C640.923 212.738 642.871 212.877 645.514 215.519C648.158 218.16 648.297 220.107 648.297 248.194C648.297 277.393 648.158 278.088 645.097 281.008C642.036 283.928 641.48 283.928 597.518 282.955C558.843 282.121 552.722 281.704 550.496 279.757C548.27 277.671 547.992 274.334 547.852 218.439Z" fill="black"/>
<path d="M363.102 441.187C363.102 435.904 364.354 431.176 367.554 424.085C369.919 418.662 372.284 415.047 372.562 416.02C372.979 416.994 373.675 418.106 374.232 418.523C374.649 418.94 378.127 426.032 388.422 449.808L383.692 457.734C381.188 462.183 378.683 465.798 377.988 465.798C377.431 465.798 375.344 464.686 373.119 463.295C371.032 461.766 367.971 457.873 366.302 454.536C364.215 450.503 363.102 445.915 363.102 441.187Z" fill="black"/>
<path d="M326.235 506.816C323.592 501.115 320.531 494.024 319.558 491.243L317.749 485.96L322.896 490.826C325.679 493.468 331.522 497.639 336.113 500.142C340.565 502.506 349.051 505.843 354.755 507.511C360.876 509.319 371.727 510.849 396.491 512.378V516.271C396.491 519.469 396.908 519.886 402.751 518.496L399.551 521.277C397.604 523.223 396.63 525.448 396.769 528.09C397.186 531.427 397.743 531.844 409.011 532.539V510.292L414.159 509.458C417.08 509.041 422.784 507.79 434.053 504.731V524.197C434.053 538.379 433.636 543.941 432.244 544.497C431.41 545.053 426.819 545.749 422.228 546.305C417.637 546.722 407.62 547 399.969 547C392.317 547 381.327 545.888 375.623 544.636C369.919 543.385 361.154 540.326 356.146 537.823C350.859 535.181 343.764 530.037 339.034 525.309C333.748 519.886 329.574 513.908 326.235 506.816Z" fill="black"/>
<path fill-rule="evenodd" clip-rule="evenodd" d="M422.923 20.1614C430.992 20.5785 442.261 21.969 447.965 23.4984C453.669 24.8889 465.633 28.0869 474.397 30.4507C483.162 32.9535 494.709 36.7076 500.134 38.9324C505.56 41.1571 513.768 45.3284 518.637 48.2483C523.367 51.1682 531.297 56.73 545.07 67.4364L465.355 68.1316L458.399 75.3619V112.765C458.399 149.751 458.399 150.168 464.798 156.425L518.637 156.842C548.27 156.981 573.868 156.842 575.537 156.425C577.346 156.008 579.989 154.478 581.519 152.949C583.884 150.585 584.302 148.221 584.441 120.273L587.641 126.53C589.449 130.006 592.927 138.488 595.292 145.301C597.796 152.114 600.857 163.794 602.387 171.024C603.778 178.255 605.587 190.63 607.256 212.738H580.406C555.504 212.738 553.556 212.877 550.913 215.519C548.27 218.16 548.131 220.107 548.131 278.088L551.887 280.869C555.365 283.511 557.869 283.789 575.537 283.65C586.528 283.65 595.431 284.067 595.431 284.763C595.431 285.319 593.623 291.02 591.397 297.555C589.171 304.09 586.11 312.293 584.441 316.048C582.354 320.497 580.824 322.305 579.432 321.887C577.763 321.331 577.485 322.026 578.041 325.085C578.598 327.449 577.902 330.369 576.233 333.011C573.868 336.765 571.92 337.599 540.479 344.969L532.132 341.215C527.541 339.129 518.498 336.348 511.96 334.958C502.778 333.011 495.683 332.594 480.658 333.011C467.998 333.428 456.59 334.54 447.965 336.487C440.73 338.017 433.218 339.685 431.27 340.102C428.21 340.797 427.514 340.102 425.427 334.818C424.036 331.481 419.584 325.085 415.55 320.497C411.376 315.908 401.638 307.427 393.986 301.726C386.196 296.025 380.631 291.02 381.605 290.741C382.579 290.463 383.552 289.768 383.97 289.212C384.387 288.656 389.952 288.795 396.491 289.49C403.029 290.185 412.628 291.993 418.054 293.522C423.48 295.191 434.47 299.501 442.678 303.255C451.025 307.01 458.26 309.791 459.094 309.373C459.929 308.956 460.485 309.234 460.485 310.069C460.485 310.903 461.738 312.015 463.268 312.849C464.798 313.684 467.163 313.823 468.415 313.406C470.641 312.571 470.641 312.293 468.833 311.32C467.72 310.625 465.494 310.486 463.963 311.042C462.294 311.598 461.598 311.459 462.155 310.625C462.711 309.93 456.034 306.036 447.547 302.004C438.922 297.833 427.236 292.966 421.532 290.88C412.35 287.682 408.872 287.265 373.536 286.987L364.493 281.426C359.485 278.228 348.633 271.97 340.147 267.243C325.818 259.317 324.844 258.483 325.401 254.868C325.679 252.365 324.148 247.777 321.088 241.937C318.445 236.931 315.106 228.867 313.715 223.861C311.767 217.465 310.932 210.513 310.932 200.224C310.932 192.159 311.349 182.704 313.019 172.415L327.209 178.811C335.139 182.287 345.295 186.597 349.886 188.266C354.477 190.073 363.937 193.411 370.753 195.635C377.57 197.999 386.752 200.502 390.926 201.336C395.099 202.17 402.334 203.144 406.924 203.561C411.515 203.978 421.81 204.673 429.879 205.09C437.948 205.507 445.043 205.229 445.878 204.534C446.713 203.839 451.582 203.978 457.703 204.673C467.163 205.924 468.694 205.785 473.702 203.144C476.762 201.614 480.24 198.694 481.353 196.887C483.162 193.828 483.162 193.132 481.353 191.047C479.823 189.378 477.597 188.961 472.589 189.239C468.833 189.517 465.494 189.378 465.216 188.822C464.937 188.127 465.911 186.319 467.441 184.651C468.972 182.843 470.224 180.618 470.224 179.784C470.224 178.811 469.389 177.977 468.415 177.977C467.581 178.116 464.242 179.645 461.181 181.453C458.12 183.399 454.086 185.624 452.138 186.319C449.356 187.571 445.321 186.736 430.575 182.009C420.697 178.811 406.785 173.666 399.969 170.607C393.152 167.409 382.718 161.847 377.014 157.954C371.31 154.061 362.824 148.082 358.233 144.606C353.642 141.13 346.129 135.707 341.538 132.648C336.947 129.45 328.322 124.584 322.34 121.803C312.184 117.075 311.767 116.658 313.297 113.738C314.132 111.931 317.332 106.786 320.392 102.197C323.453 97.609 329.574 89.4054 333.887 84.1217C338.2 78.8381 346.129 70.3564 351.416 65.6288C356.702 60.7623 365.05 54.0882 370.058 50.7511C375.066 47.4141 384.109 42.4085 390.23 39.4885C396.351 36.7076 406.09 33.2315 411.794 31.7021C417.498 30.3116 427.375 28.6431 433.775 28.0869C440.035 27.5307 445.182 26.8355 445.182 26.4184C445.182 26.0012 443.513 25.306 441.426 24.7498C439.2 24.1937 432.801 23.3594 427.097 22.9423C420.976 22.247 411.237 22.6642 403.447 23.6375C396.212 24.6108 385.222 26.8355 379.101 28.7821C372.979 30.7287 361.989 35.3172 354.755 39.0714C347.521 42.8256 335.835 50.0559 329.018 55.2005C322.201 60.3452 312.184 68.9659 307.037 74.3886C301.889 79.6723 297.577 83.2875 297.716 82.4532C297.716 81.4799 301.333 76.8914 305.646 72.1639C310.097 67.5755 317.749 60.3452 322.757 56.3129C327.766 52.1416 337.087 45.6065 343.625 41.7132C350.164 37.82 359.763 32.8144 365.189 30.5897C370.614 28.365 378.683 25.5841 383.274 24.4718C387.865 23.2204 395.378 21.6909 399.969 20.9956C404.559 20.1614 414.854 19.8833 422.923 20.1614ZM134.251 154.339C149.136 154.339 161.657 154.756 161.935 155.451C162.353 156.008 159.709 156.842 156.092 157.537C152.475 158.093 145.519 158.51 140.511 158.51C135.503 158.51 125.764 158.093 118.669 157.537C111.713 156.842 106.288 156.008 106.566 155.451C106.983 154.756 119.504 154.339 134.251 154.339ZM40.4841 181.453C41.1797 181.87 38.6755 186.736 34.7802 192.298C31.0239 197.721 26.0156 207.315 23.7897 213.433C21.5638 219.551 18.9206 230.257 17.9467 237.07C16.5555 246.803 16.5555 252.643 17.8076 263.489C18.7814 271.136 21.0074 282.538 22.955 288.934C25.0418 295.886 25.8765 300.614 25.0418 301.031C24.3462 301.448 22.3985 297.555 20.8682 292.41C19.3379 287.126 16.9729 276.698 15.8599 269.051C14.3296 259.735 13.9123 251.253 14.4687 243.327C15.0252 236.792 16.4164 227.754 17.5294 223.166C18.7814 218.577 21.5638 210.791 23.9289 205.785C26.1548 200.78 30.6066 193.132 33.6672 188.822C36.7278 184.373 39.7885 181.175 40.4841 181.453ZM223.426 207.037C224.4 215.936 227.043 231.231 228.991 241.242C231.078 251.253 233.999 262.794 235.39 266.965C236.781 271.136 239.286 275.864 240.816 277.393C242.903 279.479 243.737 282.399 244.016 289.212C244.294 294.218 245.824 303.255 247.355 309.373C249.024 315.491 253.058 328.005 256.536 337.182C259.875 346.359 263.075 354.98 263.492 356.37C264.188 358.178 262.797 359.568 258.067 362.21C254.589 364.157 251.806 366.242 251.806 367.077C251.806 367.911 250.554 368.467 249.024 368.467C247.494 368.467 246.242 369.023 246.242 369.858C246.242 370.692 245.685 370.97 244.85 370.553C244.016 370.136 243.459 370.414 243.459 371.248C243.459 372.082 243.737 372.639 244.155 372.639C244.572 372.639 247.355 371.387 250.415 369.858C253.476 368.328 255.98 366.521 255.98 365.686C255.98 364.852 256.536 364.574 257.371 364.991C258.206 365.408 258.762 365.13 258.762 364.296C258.762 363.462 259.319 363.184 260.154 363.601C260.988 364.018 261.545 363.74 261.545 362.905C261.545 362.071 262.658 361.793 264.049 361.932C265.579 362.349 267.666 365.825 269.892 372.082C272.674 380.008 273.231 384.318 273.231 396.276C273.231 405.87 272.396 414.213 270.727 420.609C269.335 426.032 266.275 435.348 264.049 441.465C261.684 447.583 258.623 453.701 257.232 455.092C254.728 457.316 254.45 457.316 251.111 453.979C248.746 451.616 246.102 450.503 242.764 450.503C240.12 450.503 235.112 451.338 231.773 452.311C226.487 453.701 225.374 453.701 222.035 451.616C220.087 450.225 216.053 445.637 213.27 441.187C210.349 436.877 207.149 432.984 206.175 432.567C205.201 432.149 203.671 432.428 202.697 433.401C201.445 434.791 200.193 433.401 197.411 427.144C195.463 422.833 191.15 416.298 187.672 412.683C182.803 407.4 180.577 406.009 177.099 406.009C173.343 406.009 172.091 406.843 170.422 410.18C169.309 412.405 168.335 416.298 168.335 418.523C168.335 420.748 168.057 422.694 167.639 422.694C167.222 422.694 164.439 420.192 155.814 411.571L158.596 404.619C160.127 400.865 161.379 395.581 161.379 393.217C161.379 390.714 159.709 385.153 157.762 380.981C154.84 374.724 154.701 373.751 156.788 375.558C158.179 376.81 162.631 378.617 166.665 379.452C170.561 380.286 174.456 380.703 175.291 380.286C176.125 379.869 176.96 380.147 177.378 380.981C177.795 381.815 186.003 382.233 199.358 381.815C213.549 381.537 220.644 380.842 220.922 379.73C221.061 378.896 222.452 378.617 224.4 379.035C226.626 379.73 227.043 379.591 226.069 378.339C225.095 377.227 223.009 377.088 218.418 378.2C214.94 379.035 204.923 379.591 196.159 379.591C187.394 379.591 177.099 378.896 173.204 378.061C169.448 377.227 163.187 375.698 159.292 374.446C155.536 373.334 150.249 370.414 147.884 367.911C145.241 365.408 142.737 361.237 142.041 358.039C141.206 354.98 140.372 347.75 139.954 342.049C139.537 336.348 138.563 329.396 137.729 326.754C137.033 324.112 134.668 319.941 132.442 317.716C130.216 315.491 126.321 313.128 123.677 312.71C121.034 312.154 116.721 312.571 114.078 313.406C111.157 314.379 108.096 316.882 106.148 319.802C104.34 322.444 102.949 326.337 102.949 328.561C102.949 330.647 103.644 333.706 104.618 335.514C105.453 337.182 109.487 342.188 113.661 346.637C117.695 350.948 120.756 354.841 120.339 355.258C119.921 355.675 117.139 354.007 114.078 351.782C110.044 348.723 108.513 348.167 108.513 349.696C108.513 350.809 111.435 353.728 115.191 356.231C118.808 358.595 121.034 360.82 120.339 361.098C119.643 361.515 116.721 361.098 114.078 360.403C111.435 359.846 106.983 359.429 104.34 359.568C101.697 359.707 98.7751 360.82 98.0795 362.071C97.3839 363.323 96.2709 364.018 95.7145 363.601C95.0189 363.184 92.5147 365.686 90.1497 369.023C85.5587 375.141 85.5587 375.141 82.2199 372.917C80.4113 371.665 77.2116 367.077 75.1248 362.905C72.8989 358.734 70.2556 351.226 69.0035 346.22C67.0559 337.877 67.0559 337.043 69.2818 335.792C70.5338 334.958 73.5945 332.455 80.5504 326.059L88.8976 334.401C93.7668 339.129 97.2448 341.771 96.9665 340.38C96.8274 339.129 93.6277 334.818 89.7323 330.925C83.8893 325.085 82.7764 323 82.7764 318.689C82.7764 313.962 82.4981 313.545 78.7419 313.545C75.8204 313.545 73.7336 312.154 70.8121 308.4C67.0559 303.534 66.9167 302.838 68.8644 300.057C69.9774 298.25 70.9512 295.469 70.9512 293.8C70.9512 291.159 70.2556 290.602 66.7776 291.02C63.4388 291.298 62.604 290.741 62.604 288.517C62.604 286.987 63.2996 278.923 63.9952 270.441C64.83 261.959 66.4994 251.114 67.7515 246.108C68.8644 241.103 71.3686 234.15 73.1771 230.535C74.9857 226.781 79.4375 220.941 83.1937 217.465C87.2282 213.572 92.6538 210.096 97.3839 208.427C101.557 206.898 108.235 204.951 111.991 204.256C115.887 203.561 132.025 202.309 148.162 201.614C164.3 200.919 182.108 199.667 187.811 198.833C193.515 197.999 202.002 196.469 206.593 195.357C211.184 194.384 216.47 192.854 218.279 192.159C221.478 190.908 221.478 190.908 223.426 207.037ZM27.2677 305.897C27.8242 305.897 31.4413 312.015 35.0584 319.524C38.8146 326.893 41.7361 333.15 41.7361 333.428C41.7361 333.567 41.0405 333.706 40.3449 333.706C39.5102 333.706 36.5887 328.84 33.5281 323C30.6066 317.021 27.6851 310.764 27.1286 309.095C26.5721 307.288 26.7112 305.897 27.2677 305.897ZM66.9167 306.871C69.1427 307.288 69.56 307.983 68.4471 308.539C67.195 309.095 67.4732 310.069 72.3424 314.935L69.2818 317.994C67.4732 319.663 65.6647 320.775 64.9691 320.497C64.4126 320.08 63.8561 316.743 63.8561 312.989C63.717 306.453 63.8561 306.175 66.9167 306.871ZM304.254 315.63C304.533 315.63 306.759 316.743 313.715 320.914L310.237 323C308.289 324.251 306.48 325.085 306.063 324.807C305.646 324.529 305.089 322.305 304.672 319.941C304.254 317.577 303.976 315.63 304.254 315.63ZM317.888 323.417C319.418 323.834 327.905 326.059 336.669 328.283C345.434 330.647 357.676 333.845 363.797 335.514C373.814 338.156 375.762 339.268 382.857 346.498C387.309 350.948 390.926 354.98 390.926 355.675C390.926 356.231 386.057 358.873 380.214 361.515C374.231 364.157 364.354 369.719 358.233 373.89C352.111 377.922 341.817 386.126 335.556 391.966C329.157 397.806 321.088 404.897 311.628 412.961L313.854 405.036C315.94 397.945 315.94 394.747 314.549 379.591C313.715 369.997 311.489 354.841 306.759 329.257L310.932 325.92C313.715 323.695 316.08 322.861 317.888 323.417ZM569.694 339.407C570.529 339.407 570.112 339.963 568.999 340.658C567.607 341.585 567.468 342.049 568.581 342.049C569.833 342.049 569.972 342.744 569.138 344.552C568.442 345.803 564.408 350.809 560.095 355.675C555.782 360.403 551.748 364.296 550.913 364.296C550.078 364.296 548.548 361.932 547.435 359.151C546.183 356.231 544.931 352.477 544.653 350.809C544.096 348.584 544.653 347.611 546.044 347.611C547.157 347.611 547.852 347.054 547.435 346.22C547.018 345.525 547.018 344.83 547.435 344.83C547.852 344.83 549.244 344.413 550.496 343.995C552.583 343.3 552.722 343.439 550.913 344.691C549.522 345.71 549.383 346.22 550.496 346.22C551.47 346.22 553.974 345.525 556.06 344.552C558.286 343.717 561.347 343.161 563.016 343.161C564.825 343.3 565.938 342.883 565.521 342.049C565.103 341.354 565.66 340.38 566.494 340.102C567.468 339.685 568.859 339.407 569.694 339.407ZM50.5007 347.611C51.0571 347.611 54.5351 351.643 58.4305 356.648C62.1867 361.654 65.3864 365.964 65.3864 366.382C65.3864 366.799 64.9691 367.077 64.2735 367.077C63.717 367.216 60.6564 363.74 57.3175 359.429C54.1178 355.258 51.0571 350.809 50.5007 349.696C50.0833 348.584 50.0833 347.611 50.5007 347.611ZM103.088 376.81C104.201 376.81 106.427 379.73 107.957 383.484C109.626 387.099 111.435 392.244 111.852 394.886C112.687 399.196 112.131 400.447 106.844 406.287C103.505 409.902 100.445 412.822 99.7489 412.961C99.1924 412.961 97.9404 410.876 96.9665 408.512C95.8536 406.009 94.6015 400.169 94.045 395.581C93.2103 387.238 93.2103 387.238 98.0795 383.484C100.723 381.259 102.531 379.035 102.114 378.2C101.697 377.505 102.114 376.81 103.088 376.81ZM354.477 379.591C354.755 379.591 354.337 380.564 353.503 381.676C352.39 383.206 352.807 385.57 355.311 391.131C357.12 395.025 358.928 399.613 359.485 401.143C359.902 402.811 363.937 405.592 369.084 408.095C373.814 410.32 380.214 413.239 388.839 416.716L384.665 419.496C382.3 421.026 379.657 422.694 378.683 423.112C377.709 423.807 376.179 422.277 374.51 419.079C373.258 416.298 370.893 413.935 369.362 413.657C367.832 413.379 357.815 412.127 347.103 411.015C329.018 409.068 327.487 409.068 325.122 411.293C323.731 412.544 320.531 417.689 318.027 422.694C315.384 427.7 312.323 435.208 311.071 439.38C309.819 443.551 308.845 451.059 308.845 456.065C308.845 461.071 309.819 467.606 310.932 470.665C312.045 473.724 312.88 477.061 313.019 478.034C313.019 478.868 308.428 481.51 302.863 483.735C297.438 485.96 289.09 488.88 284.499 490.131C279.909 491.382 276.152 492.217 276.013 491.938C275.874 491.66 274.205 487.906 268.501 475.531L272.396 471.777C274.622 469.552 278.935 464.825 281.856 460.932C284.917 457.177 290.203 449.947 293.681 444.942C297.159 439.936 301.889 432.428 304.254 428.256C307.037 423.251 314.549 415.047 325.679 404.619C335 395.859 345.295 386.543 348.355 384.179C351.555 381.676 354.198 379.591 354.477 379.591Z" fill="white"/>
<path fill-rule="evenodd" clip-rule="evenodd" d="M122.286 0C125.207 0 127.016 0.97331 127.99 2.78088C128.685 4.31037 130.911 6.25699 132.859 6.95221C135.177 7.87917 137.264 7.87917 139.119 6.95221C141.206 5.83986 142.736 6.25699 145.379 8.34265C148.301 10.7064 148.579 11.5407 147.049 13.7654C145.658 15.9901 145.797 17.1024 147.744 20.0224C149.553 22.5252 151.083 23.3594 153.031 22.9423C154.7 22.5252 156.509 23.2204 157.483 24.6108C158.874 26.4184 158.874 26.6965 157.483 26.0013C156.37 25.306 155.813 26.1403 155.813 28.5041C155.813 30.7288 154.979 32.1192 153.309 32.3973C152.057 32.6754 150.666 34.483 150.249 36.5686C149.831 38.6543 150.388 41.1571 151.222 41.9914C152.614 43.3818 152.475 44.4942 150.527 47.136C148.997 49.3607 147.327 50.0559 145.379 49.6388C143.71 49.0826 141.206 49.9169 139.119 51.4464C137.171 52.8368 135.641 55.2006 135.641 56.452C135.641 57.8424 133.972 59.3719 131.468 60.2062C128.129 61.1795 127.155 61.0404 126.181 59.2328C125.485 57.7034 123.399 57.0081 119.642 57.0081C116.582 57.0081 113.799 57.4253 113.521 57.9814C113.243 58.6767 111.434 59.3719 109.487 59.789C107.678 60.2062 106.287 60.0671 106.565 59.3719C106.843 58.8157 106.426 58.3986 105.73 58.3986C104.896 58.3986 104.339 57.2862 104.339 55.8958C104.339 54.6444 102.948 52.1416 101.14 50.4731C99.4701 48.8045 96.9659 47.6922 95.5747 48.1093C94.1835 48.3874 93.6271 49.3607 94.1835 50.334C94.9255 51.5391 94.6936 51.7708 93.4879 51.0292C92.6532 50.4731 90.8447 48.2483 89.7317 45.8846C87.9232 42.1304 87.9232 41.5742 89.8708 39.9057C91.4011 38.7933 91.6794 37.1248 91.1229 34.7611C90.5664 32.8144 89.1752 30.5897 88.0623 29.8945C86.532 28.9212 86.1146 27.3917 86.8102 24.6108C87.3667 21.8299 88.4796 20.8566 90.7056 20.8566C92.5141 20.8566 94.74 19.6052 95.853 17.7977C96.8268 15.9901 97.3833 13.4873 96.8268 12.2359C96.2703 10.7064 96.9659 8.89883 98.3571 7.50839C100.027 6.11795 102.252 5.70081 105.035 6.25699C107.4 6.67412 110.739 6.81317 112.686 6.25699C114.634 5.83986 116.582 4.31037 117.138 2.78088C117.834 0.834265 119.225 0 122.286 0V0ZM118.39 33.5097C116.86 35.3172 115.051 38.9324 114.495 41.4352C113.521 45.6065 113.66 46.0236 116.86 46.1627C118.808 46.1627 122.147 46.1627 124.512 46.0236C126.877 45.7455 129.798 45.0503 131.05 44.3551C132.441 43.6599 134.806 41.018 136.337 38.5153C137.867 36.1515 139.119 32.6754 139.119 30.8678C139.119 28.226 138.423 27.8088 133.137 27.9479C129.937 27.9479 125.903 28.5041 124.372 29.0602C122.703 29.6164 120.06 31.7021 118.39 33.5097ZM279.491 86.2074H289.229C298.828 86.2074 299.106 86.3465 299.106 89.6835C299.106 91.7692 298.133 93.5768 296.602 93.9939C295.35 94.5501 293.263 94.272 292.15 93.4377C290.759 92.4644 289.646 92.4644 288.672 93.2987C287.838 94.1329 285.751 94.5501 283.803 94.272C281.16 93.9939 280.186 92.8815 279.908 89.9616L279.491 86.2074ZM85.6973 95.9405C91.4011 95.9405 91.8185 96.2186 91.5403 99.4166C91.262 102.058 92.0967 103.171 95.2965 104.561C98.4962 105.813 100.444 105.813 103.365 104.561C106.843 103.171 107.4 103.31 110.043 106.786C111.573 108.872 112.826 111.096 112.826 111.653C112.686 112.209 112.269 112.348 111.713 112.07C111.156 111.653 109.487 112.487 108.235 113.738C106.426 115.546 106.009 117.214 106.843 120.69C107.678 124.166 108.513 125.279 111.017 125.279C112.686 125.279 114.634 125.974 115.191 126.947C115.84 128.06 115.608 128.291 114.495 127.643C113.289 126.994 112.455 127.782 111.991 130.006C111.573 132.37 109.765 134.317 106.843 135.568C104.339 136.541 100.861 139.183 99.3309 141.408C97.5224 143.772 96.5486 146.553 96.9659 148.082C97.5224 150.029 96.4094 152.114 93.3488 154.756C90.0099 157.676 88.2014 158.371 85.2799 157.676C82.7757 157.12 79.4369 157.954 75.5415 159.762C72.2027 161.43 69.2812 164.072 68.8638 165.602C68.4464 166.992 67.0553 168.522 65.8032 168.939C64.412 169.217 61.6296 169.773 59.5428 170.329C56.4822 170.885 55.6475 170.607 55.3692 168.522C55.091 166.714 53.4216 165.741 49.3871 165.324C45.3526 164.767 42.8485 165.324 40.0661 167.131C36.7272 169.356 35.6143 169.495 32.6928 167.965C30.7451 166.992 29.2148 165.602 29.2148 164.767C29.2148 164.072 29.7713 162.682 30.606 161.708C31.5798 160.457 31.3016 158.928 29.6321 156.425C27.5454 153.644 26.2933 153.088 22.6762 153.644C19.1982 154.2 18.0852 153.922 18.0852 152.253C18.0852 151.141 17.807 149.333 17.3896 148.082C16.9723 146.831 18.2244 145.162 20.7285 143.633C22.9544 142.242 25.4586 139.322 26.2933 136.959C27.5454 133.622 27.5454 132.648 25.8759 131.397C24.763 130.702 23.7891 129.589 23.7891 129.033C23.65 128.477 24.9021 126.113 26.4324 123.749C28.5192 120.69 30.3277 119.578 33.3884 119.578C35.8925 119.578 39.6487 118.049 42.4311 115.824C45.4918 113.46 47.3003 110.818 47.3003 108.872C47.3003 106.508 48.8306 105.117 53.2824 103.032C58.2907 100.807 59.4037 100.668 61.2122 102.198C62.8817 103.727 64.8293 103.866 69.9768 102.893C74.2895 102.058 77.0718 100.668 78.0457 98.7214C79.0195 96.6357 80.8281 95.9405 85.6973 95.9405ZM58.569 138.766C55.2301 141.547 51.613 145.718 50.6392 147.804C48.8306 151.419 48.9697 151.697 51.8912 152.253C53.5607 152.671 56.2039 152.949 57.7343 153.088C59.2646 153.088 63.9946 151.975 68.0291 150.585C72.2027 149.194 78.0457 145.996 81.1063 143.216C84.1669 140.574 87.5058 136.68 88.6188 134.595C90.1491 131.258 90.1491 130.702 88.3405 130.006C87.2276 129.728 84.3061 129.45 81.8019 129.45C79.2978 129.589 74.4286 130.423 70.9506 131.536C67.4726 132.509 61.9078 135.846 58.569 138.766ZM390.925 286.57C393.29 286.57 399.69 287.265 405.254 288.1C410.819 288.934 418.471 290.741 422.227 291.993C426.122 293.383 436 297.555 444.208 301.309C452.416 304.924 459.233 308.539 459.233 309.095C459.094 309.651 456.45 308.956 453.251 307.566C449.912 306.036 442.26 302.56 436.139 299.779C430.018 296.859 420.279 293.383 414.575 291.854C408.872 290.463 400.246 289.212 395.516 289.212C390.647 289.212 386.752 288.656 386.752 287.961C386.752 287.126 388.699 286.57 390.925 286.57ZM81.3846 323.973C82.2193 323.973 86.2537 327.449 90.4273 331.76C94.6009 335.931 97.5224 339.407 96.6877 339.407C95.9921 339.407 91.8185 335.931 87.6449 331.76C83.4713 327.449 80.689 323.973 81.3846 323.973ZM486.083 333.289C493.039 333.428 502.221 333.984 506.394 334.54C510.568 335.097 518.08 336.904 523.089 338.573C528.097 340.241 533.662 342.744 535.609 343.995C537.835 345.525 540.618 346.081 542.983 345.664C545.069 345.247 546.739 345.525 546.739 346.359C546.739 347.054 545.626 347.611 544.374 347.611C542.983 347.611 527.54 357.622 509.872 369.858C488.865 384.596 477.179 391.966 475.788 391.27C474.675 390.853 470.641 389.463 466.745 388.35C462.572 387.238 457.007 386.682 452.833 387.238C449.077 387.655 443.512 388.351 435.443 389.463L434.887 383.484C434.47 380.286 433.774 373.473 433.357 368.606C432.939 363.601 431.687 355.814 430.713 351.226C429.183 344.83 429.183 342.605 430.435 341.771C431.27 341.215 436.417 339.824 441.704 338.573C447.129 337.321 456.45 335.514 462.433 334.679C468.415 333.845 479.127 333.15 486.083 333.289ZM568.581 339.963C570.25 339.963 571.224 340.38 570.946 340.797C570.528 341.076 568.859 341.493 567.189 341.632C565.52 341.771 562.877 342.188 561.346 342.605C559.816 343.022 557.173 343.717 555.503 344.134C553.695 344.552 552.164 344.273 552.025 343.717C551.747 343.022 554.808 341.771 558.564 341.076C562.459 340.38 566.911 339.824 568.581 339.963ZM111.017 350.391C112.408 351.087 115.33 353.311 117.556 355.397C121.034 358.456 121.173 358.734 118.251 357.066C116.304 355.953 113.382 354.146 111.713 353.172C109.904 352.06 108.513 350.67 108.652 350.113C108.652 349.418 109.765 349.557 111.017 350.391ZM390.786 358.178C391.342 358.317 393.151 362.488 394.96 367.355C396.907 372.221 398.994 377.783 399.69 379.73C400.524 381.537 401.22 384.04 401.359 385.292C401.498 386.404 402.611 391.131 403.585 395.998C404.698 400.725 405.115 405.036 404.559 405.731C404.002 406.287 397.325 404.063 389.951 400.725C382.439 397.388 371.031 392.105 352.667 383.484L356.145 380.286C358.093 378.478 358.928 376.949 357.954 376.949C356.98 376.949 356.145 377.505 356.145 378.339C356.145 379.035 355.45 379.73 354.476 379.73C353.502 379.73 349.885 382.094 346.407 384.874C342.929 387.655 333.747 396.276 325.956 403.923C318.027 411.571 311.349 417.55 310.932 417.272C310.514 416.855 316.357 410.598 323.73 403.367C331.243 396.276 342.094 386.543 347.798 382.094C353.502 377.505 361.71 371.804 365.884 369.441C370.057 367.077 377.152 363.462 381.743 361.376C386.334 359.429 390.369 357.9 390.786 358.178ZM132.58 365.825C133.137 365.825 133.554 369.441 133.554 374.168C133.554 378.756 133.137 382.65 132.58 383.067C132.024 383.345 131.468 379.591 131.468 374.724C131.468 369.719 132.024 365.825 132.58 365.825Z" fill="#909090"/>
<path fill-rule="evenodd" clip-rule="evenodd" d="M132.581 69.5222C134.668 69.5222 136.616 70.4955 137.033 71.6078C137.45 72.8592 136.894 73.6935 135.363 73.6935C133.972 73.8326 131.886 72.8592 130.773 71.6078C128.964 69.8003 129.103 69.5222 132.581 69.5222ZM146.771 71.0517C147.606 71.0517 147.189 71.6078 146.076 72.4421C144.545 73.5545 144.406 74.1106 145.797 74.5278C146.632 74.8059 150.388 80.9238 153.866 88.0151C157.483 94.9673 162.909 105.257 165.97 110.54C169.17 115.824 173.9 122.637 176.682 125.696C181.551 130.98 181.69 130.98 189.898 130.285C194.489 129.867 204.506 127.643 212.157 125.14C219.809 122.637 230.521 118.466 235.808 115.963C241.094 113.321 249.302 110.679 253.893 109.845C258.484 109.15 263.91 108.872 266.136 109.15C269.335 109.706 270.031 109.289 270.588 106.369C271.005 104.422 271.561 102.893 271.979 102.893C272.396 102.893 274.344 104.144 276.57 105.535C278.656 107.064 284.778 109.15 290.064 110.401C295.351 111.514 301.055 112.904 302.585 113.46C304.115 114.016 312.184 117.631 320.671 121.664C329.574 125.974 342.93 134.039 352.668 141.13C361.85 147.804 373.119 155.869 377.709 158.928C382.3 162.126 391.065 166.992 397.186 169.773C403.307 172.693 417.498 178.116 449.356 189.1L454.642 185.902C457.425 184.095 461.877 181.592 464.381 180.34C467.024 178.811 469.111 178.533 469.528 179.367C469.946 180.201 468.694 182.565 466.746 184.929C464.798 187.293 463.268 189.378 463.268 189.795C463.268 190.213 466.607 190.213 470.641 189.795C475.65 189.239 478.71 189.517 480.658 190.908C483.301 192.854 483.301 193.133 481.075 196.609C479.684 198.555 477.18 201.197 475.51 202.309C473.284 203.839 469.389 204.256 462.572 204.117C452.973 203.7 452.834 203.7 451.164 195.357L449.217 199.25C448.104 201.475 445.739 203.561 443.791 203.978C441.844 204.395 432.105 204.395 422.228 203.839C412.35 203.422 400.386 202.309 395.795 201.614C391.204 200.919 383.413 199.111 378.405 197.582C373.397 196.052 361.85 190.491 352.668 185.485C343.486 180.34 331.8 173.388 326.653 170.051C321.366 166.853 316.775 164.072 316.219 164.072C315.523 164.072 314.967 164.907 314.827 165.741C314.688 166.714 313.575 171.303 312.462 175.891C311.21 180.619 310.237 190.213 310.237 198.138C310.237 205.786 311.21 215.936 312.323 220.802C313.436 225.53 316.914 234.707 325.54 253.061L322.479 259.596C320.253 264.184 317.193 267.521 312.323 270.719C308.567 273.222 300.916 276.837 295.629 278.784C289.786 281.008 281.439 282.677 274.761 283.233C265.023 283.928 263.353 283.65 261.406 281.426C260.154 279.896 257.789 275.03 256.119 270.441C254.311 265.714 252.363 255.702 251.528 247.499C250.833 239.434 249.998 231.092 249.581 228.728C249.302 226.364 245.824 219.551 241.929 213.433C237.894 207.315 233.721 199.111 232.747 195.357C231.356 189.934 231.217 185.763 232.469 176.586C233.164 170.051 233.721 164.628 233.443 164.35C233.164 164.072 230.66 164.211 227.878 164.628C224.956 165.046 222.591 165.88 222.591 166.575C222.591 167.131 214.94 167.131 205.619 166.575C193.098 166.019 185.446 164.767 176.96 162.126C170.282 160.04 163.605 156.842 161.101 154.617C158.596 152.393 154.562 147.526 152.058 143.772C149.554 140.018 145.38 131.675 142.737 125.14C140.094 118.605 136.337 107.064 134.251 99.4167C132.164 91.7693 130.912 84.1218 131.468 82.5923C131.886 80.9238 134.946 78.282 138.146 76.7525C141.346 75.084 143.015 73.6935 141.902 73.6935C140.511 73.5545 140.65 73.1373 142.598 72.3031C144.128 71.6078 146.076 71.0517 146.771 71.0517ZM285.195 81.2019C288.673 81.619 292.568 82.0362 293.96 82.0362C295.212 82.0362 296.325 82.7314 296.325 83.4266C296.325 84.1218 291.873 84.9561 286.586 85.2342C280.465 85.3732 276.709 84.9561 276.57 83.9828C276.431 83.1485 276.987 82.0362 277.683 81.48C278.378 80.9238 281.717 80.7848 285.195 81.2019ZM272.674 84.8171C273.509 84.8171 274.066 85.7904 274.066 86.9027C274.066 88.0151 275.735 90.2398 277.961 91.9083C280.743 93.994 282.969 94.5501 286.586 93.994C289.23 93.5768 292.29 93.7159 293.264 94.2721C294.516 94.8282 294.933 96.4968 294.377 98.4434C293.96 100.112 292.151 102.754 290.482 104.283C288.673 105.813 286.169 107.064 284.917 107.064C283.526 107.064 280.465 105.952 278.239 104.7C275.735 103.31 272.674 99.4167 271.005 95.9406C268.918 91.6302 268.501 89.5446 269.614 89.4055C270.588 89.1274 271.283 88.0151 271.283 86.9027C271.283 85.7904 271.84 84.8171 272.674 84.8171ZM418.332 453.701C419.724 453.562 421.115 454.397 421.254 455.509C421.393 456.621 420.28 458.012 418.75 458.846C416.663 459.958 415.828 459.68 415.272 458.151C414.854 457.038 414.854 455.509 414.993 454.953C415.272 454.397 416.802 453.84 418.332 453.701ZM257.371 469.97C258.206 469.97 258.762 472.75 258.762 476.227C258.762 479.703 258.484 482.484 258.067 482.484C257.649 482.484 256.397 480.954 255.284 479.007C253.754 476.505 253.615 474.836 254.589 472.75C255.424 471.221 256.676 469.97 257.371 469.97Z" fill="white"/>
<path d="M105.87 320.08C107.4 317.577 110.183 314.935 111.713 314.24C113.382 313.545 117.417 312.989 120.756 312.989C125.347 312.85 127.572 313.684 131.19 316.882C133.555 318.968 136.337 323.278 137.311 326.198C138.146 329.118 139.258 335.931 139.815 341.354C140.232 346.776 141.067 353.59 141.484 356.649C142.134 360.356 144.313 364.296 148.023 368.467C151.084 371.943 154.283 374.724 155.257 374.724C156.092 374.724 156.648 375.141 156.37 375.698C156.092 376.393 157.066 379.452 158.596 382.65C160.126 385.987 161.378 390.714 161.378 393.078C161.378 395.581 160.126 400.726 155.814 411.571L151.64 409.485C149.275 408.373 146.354 407.4 145.102 407.4C143.71 407.261 141.763 408.095 140.789 409.068C139.676 410.181 139.258 412.962 139.676 416.438C139.954 419.497 140.789 425.058 142.18 435.904L134.807 428.534C130.633 424.502 126.877 421.304 126.32 421.304C125.625 421.304 125.207 420.192 125.207 418.94C125.207 417.55 126.599 412.127 128.129 406.705C129.798 401.282 131.19 395.025 131.19 392.522C131.329 390.158 132.024 387.655 132.581 386.96C133.137 386.404 133.555 380.842 133.555 374.724C133.555 368.606 132.859 360.82 132.024 357.344C131.329 353.868 130.355 350.114 129.798 349.001C129.381 347.889 128.685 345.664 128.407 344.135C128.129 342.605 126.738 339.546 125.486 337.321C124.234 335.097 122.147 333.011 121.034 332.733C119.782 332.316 119.504 332.594 120.477 333.289C121.173 333.845 123.121 337.6 124.79 341.354C126.46 345.108 128.407 352.06 129.381 356.649C130.355 361.237 131.05 369.719 131.05 375.42C131.05 381.12 130.772 386.821 130.355 387.934C129.798 389.046 129.242 391.966 128.825 394.191C128.407 396.415 127.572 400.587 126.738 403.228C125.903 405.87 125.347 408.373 125.486 408.79C125.486 409.207 124.929 411.571 123.955 414.074C122.425 418.384 122.286 418.523 118.947 416.438C116.999 415.325 115.469 413.379 115.469 412.266C115.469 411.154 116.443 410.181 117.556 410.181C119.086 410.181 119.504 408.929 119.364 405.731C119.086 402.116 118.251 401.004 115.886 400.865C113.382 400.587 112.548 399.335 111.852 395.303C111.435 392.383 109.487 386.682 107.678 382.789C104.757 376.254 104.479 375.002 106.287 371.665C107.261 369.441 108.096 365.965 107.957 363.879C107.818 359.847 107.818 359.847 114.495 360.681C118.112 361.098 121.312 361.098 121.59 360.542C122.008 359.847 121.312 357.483 120.199 355.258C119.086 353.033 115.33 348.306 112.13 344.83C108.791 341.354 105.313 337.182 104.479 335.375C103.644 333.706 102.948 330.647 102.948 328.423C102.948 326.337 104.2 322.583 105.87 320.08Z" fill="#616161"/>
<path d="M2.08679 344.83C3.19975 342.605 5.84301 339.407 7.9298 337.878C10.2948 336.07 13.7728 335.097 17.6682 335.097C20.8679 335.097 25.3197 335.931 27.4065 337.043C29.6324 338.156 36.4493 344.691 42.7096 351.643C51.6133 361.376 55.5086 364.574 59.404 365.686C62.3255 366.382 67.612 367.216 71.09 367.355C74.7071 367.633 77.3504 368.05 77.2113 368.467C76.933 368.884 79.1589 370.692 82.0804 372.639C85.1411 374.585 88.7582 378.339 90.2885 380.981C91.6797 383.623 93.3491 389.046 93.7665 392.8C94.3229 396.554 94.8794 404.48 95.2968 410.181C95.575 415.881 96.2706 422.556 96.8271 424.78C97.2444 427.005 99.053 431.454 100.722 434.513C102.253 437.572 103.922 440.353 104.34 440.77C104.757 441.187 106.009 442.717 107.122 444.107C108.652 446.193 107.818 445.915 103.644 443.134C100.583 441.048 96.9662 439.38 95.575 439.38C94.3229 439.38 92.9317 438.963 92.6535 438.407C92.3753 437.711 89.3146 436.877 85.6975 436.321C81.3848 435.487 79.298 434.513 79.298 433.123C79.298 432.011 78.4633 430.203 77.4895 429.369C76.6548 428.395 75.8201 427.005 75.6809 426.171C75.6809 425.336 75.2636 423.112 74.7071 421.026C74.1506 418.801 73.0377 417.133 72.3421 417.133C71.5074 417.133 71.2291 416.299 71.6465 415.464C72.0638 414.491 71.7856 412.683 70.9509 411.571C70.2553 410.459 69.2814 410.042 68.5859 410.737C68.0294 411.432 68.3076 412.127 69.1423 412.405C70.1162 412.683 70.6726 413.518 70.2553 414.352C69.8379 415.186 70.2553 417.133 71.2291 418.801L71.2292 418.801C72.203 420.609 73.1768 422.417 73.3159 422.973C73.5941 423.668 73.7333 425.058 73.7333 426.171C73.7333 427.283 74.7071 429.23 75.8201 430.342C77.6286 432.15 77.6286 432.706 75.6809 434.513C74.568 435.626 72.7594 436.599 71.9247 436.599C70.9509 436.599 68.8641 437.989 67.0555 439.797C65.3861 441.466 63.9949 444.246 63.9949 446.054C63.9949 447.723 65.3861 451.199 67.0555 453.701C68.8641 456.065 71.5074 459.263 73.0377 460.654C74.568 461.905 80.411 465.798 85.8367 469.274C91.4014 472.751 95.9924 476.505 95.9924 477.617C95.9924 479.147 94.8794 479.564 91.4014 479.008C89.0364 478.59 84.7237 477.895 82.0804 477.478C79.4372 477.061 74.568 475.67 71.2291 474.419C68.0294 473.029 65.247 471.777 65.3861 471.36C65.3861 470.943 64.5514 470.665 63.5776 470.526C62.7428 470.526 58.7084 468.301 54.9522 465.659C51.0568 463.156 45.9094 458.846 43.4052 456.482C41.0402 453.98 38.5361 450.225 38.1187 448.14C37.5622 445.915 37.8405 443.273 38.5361 442.161C39.3708 441.048 43.6835 438.824 48.1353 437.294C53.8392 435.348 56.8998 433.401 58.0128 431.037C59.404 428.395 59.404 426.449 58.291 422.695C57.3172 420.053 54.3957 415.464 51.6133 412.544C48.8309 409.624 42.0141 404.619 36.3102 401.421C30.6063 398.223 25.1806 394.051 24.2068 392.105C22.6765 389.185 22.6765 388.073 24.7632 385.292C26.0153 383.345 29.2151 380.981 31.5801 380.008C34.0842 379.035 36.171 377.783 36.171 377.227C36.3102 376.532 35.4754 375.42 34.5016 374.446C33.5278 373.473 27.963 371.804 22.2591 370.692C16.5552 369.58 10.0166 367.911 7.9298 366.799C5.84301 365.826 3.19975 362.906 2.08679 360.542C0.973836 358.039 0 354.424 0 352.477C0 350.531 0.973836 347.055 2.08679 344.83Z" fill="#616161"/>
<path d="M261.962 485.404C259.458 484.152 258.762 482.623 258.623 477.756L258.345 471.638L263.631 473.168C268.5 474.697 268.779 475.114 267.944 479.703C267.527 482.345 266.692 485.125 265.996 485.682C265.44 486.377 263.631 486.238 261.962 485.404Z" fill="#616161"/>
<path fill-rule="evenodd" clip-rule="evenodd" d="M541.87 347.332L546.461 357.622C550.773 367.216 550.912 367.911 548.547 369.579C547.156 370.553 545.069 371.943 543.956 372.638C542.844 373.334 542.148 374.168 542.565 374.585C542.983 375.002 546.6 373.751 550.634 371.943C554.53 369.997 558.425 368.467 559.26 368.467C560.094 368.467 561.486 370.553 562.598 372.917C563.711 375.419 564.129 378.478 563.711 379.591C563.155 380.842 563.433 381.259 564.129 380.842C564.964 380.147 565.242 382.928 564.546 388.489C564.129 393.078 563.016 399.474 562.181 402.533C561.486 405.592 558.564 412.405 556.06 417.828C553.417 423.251 548.408 431.315 544.93 435.904C541.591 440.492 534.079 448.557 528.375 453.979C522.671 459.402 512.376 467.606 505.56 472.194C498.743 476.922 486.639 484.013 478.57 488.045C470.501 492.077 457.702 497.5 450.051 500.003C442.399 502.506 429.879 505.982 422.227 507.65C411.654 510.014 403.585 510.709 388.143 510.709C373.813 510.709 365.188 510.153 358.51 508.485C353.363 507.233 345.294 504.313 340.425 502.228C335.695 500.142 329.017 495.693 325.539 492.495C322.061 489.297 318.722 487.211 317.887 487.767C317.053 488.323 316.914 488.323 317.47 487.628C318.166 487.072 317.609 485.681 316.496 484.569C315.383 483.457 313.436 478.868 312.184 474.419C310.932 470.108 309.679 463.295 309.262 459.541C308.845 455.509 309.54 448.557 310.932 442.856C312.184 437.433 315.383 429.09 318.027 424.085C320.67 419.079 323.731 413.935 324.843 412.405C326.652 410.041 327.904 409.902 338.338 410.876C344.738 411.571 351.415 412.127 353.363 412.266C355.311 412.405 360.18 412.961 364.075 413.517C368.11 413.935 371.448 414.491 371.448 414.63C371.448 414.908 369.501 419.357 367.136 424.78C363.936 431.454 362.545 436.738 362.545 441.465C362.545 445.637 363.658 450.642 365.188 453.979C366.718 457.038 371.031 461.766 374.926 464.686C378.683 467.467 384.108 470.526 386.752 471.221C389.395 472.055 395.933 472.75 401.359 472.75C411.097 472.75 411.097 472.75 419.445 465.52C424.036 461.627 431.548 455.648 436.139 452.311C440.73 448.974 445.46 446.332 446.573 446.332C447.686 446.332 446.712 447.444 444.486 448.696C442.26 449.947 436.278 453.979 431.27 457.873C426.261 461.766 419.862 467.049 416.801 469.83C413.88 472.611 411.932 475.531 412.35 476.505C412.767 477.617 415.828 478.312 419.445 478.312C423.618 478.312 428.487 476.922 433.635 474.28C438.087 472.055 442.678 469.274 443.791 468.023C444.903 466.771 446.851 465.659 447.964 465.798C449.077 465.798 453.807 463.991 458.398 461.905C462.989 459.68 470.78 455.231 475.788 451.894C480.796 448.557 488.309 442.3 492.482 438.128C496.656 433.818 501.803 427.561 503.751 424.085C505.838 420.609 508.203 415.325 509.177 412.266C510.011 409.207 510.568 404.619 509.872 397.249L486.918 412.961L481.77 410.598C477.875 408.79 473.006 408.234 463.267 408.373C454.085 408.373 447.686 409.207 434.748 413.796V398.362C434.748 390.019 434.887 384.457 435.165 386.126C435.443 389.185 435.861 389.324 442.121 388.35C445.738 387.655 452.694 387.377 457.702 387.377C462.711 387.516 469.249 388.629 477.875 392.105L484.831 387.377C488.726 384.735 503.055 374.724 516.828 364.991L541.87 347.332ZM352.806 383.762C353.085 383.762 356.284 385.152 360.041 386.96C363.658 388.768 374.926 393.912 385.082 398.501C398.298 404.341 404.002 406.148 404.559 405.036C405.115 404.062 406.367 408.095 407.202 414.074C408.176 419.913 408.872 424.919 408.593 425.058C408.454 425.336 403.307 423.112 397.186 420.47C391.064 417.689 380.352 412.683 361.015 403.645L356.563 393.773C354.198 388.211 352.528 383.762 352.806 383.762ZM248.05 468.579C248.189 468.579 248.05 470.943 247.91 473.724C247.632 476.644 249.023 485.542 250.971 493.607C253.058 501.532 255.562 510.014 256.675 512.378C257.788 514.603 260.709 518.913 263.214 521.694C265.718 524.614 269.613 527.812 271.978 529.063C275.178 530.593 275.456 531.149 273.369 531.01C271.839 531.01 268.778 529.897 266.413 528.507C264.048 526.978 260.292 523.501 257.927 520.442C255.423 517.523 252.223 511.266 250.554 506.399C248.884 501.672 246.797 492.634 245.685 486.238C243.876 476.226 243.876 474.419 245.685 471.638C246.797 469.969 247.771 468.579 248.05 468.579Z" fill="#909090"/>
<path d="M168.474 419.914C168.891 416.438 170.143 411.988 171.534 409.903V409.764C172.926 407.678 175.151 406.009 176.682 406.009C178.212 406.009 182.107 408.373 185.307 411.432C188.646 414.352 193.515 420.887 196.159 426.032C200.054 433.401 201.445 434.791 202.836 433.401C204.227 432.15 205.201 432.289 207.427 434.513C208.958 436.043 211.601 439.519 213.27 442.161C214.94 444.803 216.887 447.723 217.722 448.557C218.418 449.53 220.922 451.199 223.287 452.311C226.904 454.258 228.156 454.258 233.025 452.45C236.086 451.338 240.259 450.503 242.346 450.503C244.572 450.503 247.911 452.033 249.998 453.841C252.224 455.509 254.171 458.985 254.589 461.21C255.145 464.686 254.728 465.659 251.806 466.633C249.859 467.328 247.354 469.553 245.963 471.36C244.155 474.141 243.876 476.227 244.85 482.484C245.685 487.211 245.546 490.687 244.85 491.522C244.016 492.217 243.876 493.329 244.572 493.885C245.129 494.441 234.555 494.998 221.2 494.998C207.845 494.998 185.446 495.415 146.076 497.083V492.495C146.076 488.184 145.936 488.045 139.815 488.045C136.337 488.045 133.555 487.35 133.555 486.655C133.555 485.821 131.607 485.265 129.381 485.265C127.016 485.265 124.234 485.543 123.121 485.96C121.73 486.377 121.034 488.463 121.034 496.388H103.922C92.0972 496.388 86.3933 495.971 85.1413 494.72C83.7501 493.329 83.4718 493.329 83.4718 494.581C83.4718 495.693 81.6633 496.388 79.2982 496.388C76.9332 496.388 74.1508 496.11 73.0379 495.693C71.7858 495.276 70.9511 493.329 70.9511 491.104C71.0902 489.019 70.1164 486.377 68.8643 485.265C67.6122 484.152 66.7775 481.927 67.0557 480.398C67.4731 478.034 68.5861 477.617 74.4291 477.756C78.1853 477.756 84.4457 478.173 88.341 478.59C92.0972 479.147 96.9664 480.12 99.0532 480.954C101.279 481.788 102.67 482.067 102.392 481.371C102.114 480.815 97.8011 477.478 92.6537 473.724C87.6454 470.109 82.7762 467.189 82.0806 467.189C81.2459 467.189 76.9332 463.435 72.3423 458.846C66.221 452.728 63.9951 449.53 63.9951 446.61C63.9951 444.386 65.3863 441.466 67.4731 439.38C70.3946 436.46 72.2032 435.904 79.02 436.043C83.3327 436.182 89.8713 437.155 93.4884 438.407C97.2446 439.797 101.557 442.022 103.227 443.551C105.035 445.081 106.844 446.332 107.4 446.332C108.096 446.332 106.287 442.717 103.644 438.268C100.862 433.957 98.0794 428.117 97.3838 425.476C96.549 422.834 95.9926 419.358 95.9926 417.828C95.9926 416.021 97.5229 414.491 100.166 413.24C102.392 412.405 104.896 411.849 105.592 412.127C106.148 412.405 108.096 411.988 109.765 411.432C112.13 410.459 113.522 411.015 116.86 414.352C119.086 416.577 121.591 418.523 122.425 418.523C123.121 418.523 123.399 417.689 122.843 416.716C122.425 415.742 122.564 415.603 123.26 416.16C123.956 416.855 124.512 417.967 124.512 418.662C124.512 419.358 126.181 421.304 128.129 423.112C130.077 424.78 134.25 428.395 137.172 431.037C140.093 433.818 144.267 437.99 146.354 440.492C148.58 442.995 150.249 444.525 150.249 443.829C150.388 443.273 149.136 441.327 147.606 439.38C146.076 437.433 143.571 432.15 142.041 427.561C140.372 422.973 139.12 417.272 139.12 415.047C139.12 412.823 139.815 410.042 140.789 409.068C141.763 408.234 143.711 407.4 145.241 407.4C146.91 407.539 150.666 409.207 153.727 411.293C156.788 413.518 161.24 417.689 167.917 426.171L168.474 419.914Z" fill="black"/>
<path d="M458.677 130.702C458.538 140.296 458.259 132.092 458.259 112.626C458.259 93.1598 458.538 85.2343 458.677 95.2455C458.955 105.257 458.955 121.108 458.677 130.702Z" fill="#1B1B1B"/>
<path d="M546.739 156.703C531.853 156.981 507.786 156.981 493.178 156.703C478.71 156.564 490.813 156.425 520.307 156.425C549.8 156.425 561.625 156.564 546.739 156.703Z" fill="#1B1B1B"/>
<path d="M298.411 277.95C308.706 274.056 312.184 271.971 317.888 266.131L324.705 258.901L335.278 264.601C340.982 267.66 350.998 273.5 357.537 277.393C364.076 281.287 370.892 285.319 372.84 286.431C374.788 287.544 376.735 289.073 377.153 289.907C377.709 290.742 378.405 290.186 378.961 288.795C379.379 287.544 380.492 286.431 381.187 286.431C382.022 286.431 382.996 287.544 383.413 288.795C384.109 290.742 383.691 291.02 382.022 290.186C380.77 289.629 379.935 289.768 380.213 290.464C380.352 291.02 386.752 296.303 394.404 302.004C402.055 307.705 411.654 316.187 415.689 320.636C419.723 325.086 424.036 331.482 425.427 334.68C426.679 338.017 428.766 340.659 429.879 340.659C431.548 340.659 431.548 340.937 430.157 341.771C428.627 342.605 428.627 344.552 430.575 353.173C432.105 359.708 433.357 373.056 433.913 388.907C434.331 402.672 435.165 413.796 435.861 413.518C436.418 413.24 436.278 415.047 435.583 417.411C434.887 419.914 434.053 426.866 433.774 432.706C433.635 438.685 433.635 443.551 434.053 443.551C434.47 443.551 437.391 442.717 440.73 441.466C444.904 439.936 447.408 439.797 449.356 440.77C450.886 441.605 452.138 442.439 452.138 442.856C452.138 443.273 449.217 444.803 445.599 446.471C441.843 448.001 436.278 451.477 433.079 454.119C429.74 456.76 427.375 459.402 427.792 460.237C428.21 461.071 427.653 462.044 426.818 462.6C425.613 463.342 425.381 463.11 426.123 461.905C426.679 461.071 426.679 460.237 426.123 460.237C425.427 460.098 423.897 461.21 422.645 462.6C421.393 463.991 420.141 465.659 419.862 466.494C419.584 467.328 418.889 467.745 418.054 467.467C417.358 467.328 415.271 468.579 410.263 473.446L410.402 468.301C410.402 463.574 410.959 462.739 415.271 460.932C417.915 459.819 421.393 456.9 425.705 450.504H420.141C415.689 450.504 414.298 449.947 413.324 447.306C412.628 445.637 411.376 438.963 410.402 432.428C409.568 425.893 407.203 412.823 405.255 403.228C403.446 393.634 401.638 384.875 401.359 383.762C401.081 382.65 398.994 376.393 396.629 369.858C394.264 363.323 390.786 355.814 389.117 353.173C387.308 350.531 383.135 346.081 379.657 343.3C375.762 339.963 370.058 337.182 363.797 335.375C358.372 333.845 349.051 331.482 342.929 330.23C336.808 328.84 328.044 326.476 323.453 324.947C318.862 323.556 312.74 320.775 309.958 318.968C307.037 317.16 304.393 315.631 303.976 315.631C303.559 315.631 303.559 316.465 303.837 317.299C304.115 318.272 304.81 321.052 305.367 323.276L305.367 323.278C306.063 326.615 306.48 327.032 307.454 325.364C308.289 324.251 308.845 323.834 308.845 324.668C308.845 325.503 308.289 327.032 307.593 328.145C306.897 329.396 307.176 333.845 308.428 339.268C309.402 344.274 311.21 354.007 312.323 360.82C313.436 367.633 314.688 378.618 315.105 385.153C315.662 393.356 315.245 399.474 311.767 413.657L316.218 409.485C319.279 406.612 319.001 407.075 315.384 410.876C312.601 413.935 310.515 416.855 310.932 417.411C311.349 418.106 311.21 418.245 310.654 417.828C309.958 417.411 307.593 421.026 305.228 425.893C302.863 430.62 297.855 438.963 294.098 444.247C290.342 449.669 284.221 458.012 280.326 462.878C276.569 467.745 271.839 472.194 269.892 472.89C267.666 473.724 265.857 473.585 265.023 472.751C264.327 472.055 263.214 471.638 262.657 472.055C261.962 472.473 260.014 470.526 258.067 467.884C255.562 464.269 254.867 462.322 255.841 460.515C256.536 459.263 258.484 455.231 260.014 451.477C261.684 447.862 264.605 440.075 266.553 434.096C268.501 428.256 271.005 418.801 272.118 413.24C273.231 407.817 274.065 399.613 273.926 395.164C273.926 390.854 272.813 383.206 271.422 378.201C270.031 373.195 264.744 358.595 259.736 345.525C254.728 332.455 249.302 316.604 247.633 310.069C245.963 303.534 244.294 294.079 243.459 279.479L248.746 281.704C252.78 283.511 257.232 283.789 269.892 283.372C283.943 282.816 287.421 282.26 298.411 277.95Z" fill="#1B1B1B"/>
<path d="M586.527 283.372C581.102 283.65 571.781 283.65 565.659 283.372C559.538 283.094 563.851 282.955 575.398 282.955C586.806 282.955 591.814 283.094 586.527 283.372Z" fill="#1B1B1B"/>
<path d="M108.652 409.903C108.652 408.929 109.348 406.426 110.322 404.341C112.13 400.448 112.13 400.448 114.217 403.368C115.33 404.897 117 406.148 117.973 406.148C118.947 406.148 119.782 406.705 119.782 407.539C119.782 408.234 118.947 409.346 117.973 409.764C117 410.32 114.495 411.015 112.409 411.154C110.044 411.432 108.652 411.015 108.652 409.903Z" fill="#1B1B1B"/>
<path d="M247.493 474.28C247.354 471.36 248.328 469.553 250.693 468.023C252.502 466.911 254.31 465.937 254.867 465.937C255.284 465.937 254.867 467.467 253.754 469.414C252.084 472.333 252.224 473.446 254.449 478.034C255.98 480.954 257.927 484.013 259.04 484.847C260.153 485.682 262.379 486.794 264.049 487.211C266.831 488.045 267.388 487.489 269.474 476.366L274.065 487.489C276.569 493.607 279.213 501.672 280.047 505.565C281.021 510.571 280.882 514.464 279.491 520.026C278.517 524.058 276.709 528.09 275.596 528.924C274.065 529.898 272.257 529.342 268.779 526.978C266.275 525.031 262.518 521.138 260.432 518.079C258.345 515.02 255.562 509.319 254.31 505.565C253.058 501.672 251.111 494.024 249.859 488.463C248.746 482.901 247.633 476.505 247.493 474.28Z" fill="#1B1B1B"/>
<path d="M562.181 401.838C564.129 394.051 564.825 387.933 564.407 383.762C563.712 378.2 563.851 377.783 565.381 380.286C566.494 381.815 569.972 389.324 573.311 396.971C578.876 410.041 579.293 411.71 579.293 423.39C579.293 433.957 578.598 437.433 575.12 446.332C572.894 452.033 567.607 461.766 563.434 467.745C559.26 473.724 550.495 483.735 543.957 489.853C537.418 495.971 526.15 504.869 518.915 509.736C511.681 514.464 499.16 521.555 491.091 525.448C483.023 529.202 470.919 534.208 463.963 536.572C457.146 538.935 447.408 541.577 433.357 544.636L434.053 505.426L447.686 500.976C455.06 498.473 468.415 492.912 477.18 488.601C485.944 484.291 498.882 477.061 505.699 472.333C512.933 467.467 524.341 457.733 532.827 449.113C543.679 438.128 548.687 431.871 552.304 424.641C554.947 419.357 557.591 414.769 558.147 414.352C558.703 413.935 560.512 408.373 562.181 401.838Z" fill="#3C3C3C"/>
<path d="M399.69 519.191C396.908 519.886 396.49 519.469 396.212 515.437C395.934 510.987 395.934 510.987 408.455 510.431L409.011 532.539L403.168 532.122C397.742 531.844 397.186 531.427 396.908 527.951C396.629 525.448 397.603 523.223 402.751 518.496L399.69 519.191Z" fill="#3C3C3C"/>
<path d="M48.1357 275.308C47.9966 267.382 48.5531 263.767 50.5007 260.986C51.7528 258.901 53.9787 257.232 55.3699 257.232C56.622 257.093 58.7088 258.205 59.8217 259.457C60.9347 260.847 62.1868 264.462 62.465 267.521C62.6041 270.719 62.1868 275.725 61.3521 278.784C60.6565 281.843 58.7088 285.736 57.0394 287.544C55.509 289.212 54.257 292.132 54.257 297.555L58.1523 294.774C60.2391 293.244 63.7171 291.854 66.0821 291.576C69.5601 291.298 70.2557 291.854 70.5339 294.496C70.8122 296.303 69.421 299.223 67.1951 301.587C64.9692 303.812 61.6303 306.315 59.5435 307.149C57.3176 307.983 55.6482 309.791 55.6482 311.181C55.6482 312.433 56.622 316.882 59.8217 328.145L65.8039 321.888C69.0036 318.411 73.7337 314.935 76.2378 314.24C78.6029 313.406 81.3852 313.128 82.0808 313.545C82.7764 313.962 83.472 315.352 83.472 316.743C83.472 317.994 82.0808 321.47 80.2723 324.251C78.6029 327.032 74.4293 331.343 70.9513 333.845C67.4733 336.209 64.5518 338.295 64.2736 338.434C64.1344 338.573 65.943 343.3 68.308 349.001C70.673 354.702 73.8728 361.793 75.264 364.713C77.7681 369.441 77.7681 369.719 75.5422 368.606C74.151 367.911 70.3948 361.376 61.2129 340.659L57.0394 344.135C54.8134 346.081 50.5007 348.306 47.7184 349.14C42.5709 350.809 42.2927 350.67 37.2844 345.386C34.3629 342.466 31.9979 339.546 31.9979 338.99C31.9979 338.295 33.3891 337.182 35.1976 336.348C36.867 335.375 39.5103 334.402 41.0406 333.984C42.5709 333.567 47.0228 333.15 51.0572 333.15C54.9526 333.011 58.0132 332.733 57.735 332.316C57.4567 331.899 55.9264 326.893 51.7528 310.764L43.6839 310.625C39.093 310.625 33.8064 309.791 31.7196 308.956C29.2155 307.844 27.546 305.897 26.9896 303.534C26.5722 301.309 26.8504 299.084 27.8243 298.25C28.659 297.416 32.2761 296.999 35.8932 296.999C39.5103 297.138 44.3795 298.111 50.779 301.448L49.5269 293.523C48.8313 289.212 48.2748 281.009 48.1357 275.308Z" fill="#666666"/>
<path d="M88.3412 371.943C89.315 370.414 92.5148 367.077 95.4363 364.574C99.0534 361.515 101.836 360.125 104.34 360.403C106.983 360.681 107.818 361.654 107.957 364.296C107.957 366.243 107.122 369.719 106.009 371.943C104.757 374.168 101.558 378.479 93.906 386.543L90.1498 380.703C86.95 375.42 86.6718 374.446 88.3412 371.943Z" fill="#666666"/>
<path d="M103.505 409.903C103.783 408.929 105.175 407.122 106.566 405.731C107.957 404.341 109.07 403.228 109.209 403.228C109.209 403.228 109.07 405.175 108.931 407.4C108.653 410.459 107.818 411.571 105.731 411.571C104.201 411.571 103.227 410.876 103.505 409.903Z" fill="#666666"/>
<path d="M49.8048 486.377C51.4742 483.874 54.674 481.788 59.1258 480.537C65.247 478.868 65.9426 478.868 66.36 480.954C66.4991 482.205 67.7512 484.152 68.8641 485.264C70.1162 486.377 71.09 489.019 70.9509 491.104C70.9509 493.329 71.7856 495.276 72.7595 495.693C73.5942 496.11 72.8986 496.11 70.9509 495.693C69.0033 495.415 62.882 494.997 57.4564 494.997C48.6918 494.997 47.3006 494.719 47.3006 492.495C47.1615 491.243 48.4136 488.462 49.8048 486.377Z" fill="white"/>
<path d="M120.756 491.243C120.617 488.462 121.173 486.655 122.425 486.238C123.538 485.821 126.599 485.403 129.103 485.403C131.468 485.264 133.555 485.821 133.555 486.655C133.555 487.35 136.337 488.045 139.815 488.045C145.658 488.045 146.075 488.323 146.075 495.693H121.034L120.756 491.243Z" fill="white"/>
<path d="M265.857 78.1428C265.997 73.1372 266.831 71.0515 270.587 67.2973C274.9 62.8479 275.596 62.5698 285.056 62.5698C293.125 62.5698 295.49 63.126 297.716 65.3507C299.246 66.8802 300.498 69.1049 300.498 70.2173C300.498 71.3296 300.916 73.1372 301.333 73.9715C301.75 74.9448 300.916 76.8914 299.524 78.4209C297.577 80.3675 295.212 80.9237 288.673 80.6456L288.673 80.6456C284.082 80.5065 279.491 80.3675 278.656 80.5065C277.683 80.5065 276.848 81.897 276.848 83.4265C276.848 85.6512 276.291 85.9293 273.926 85.095C271.979 84.3998 270.727 84.8169 269.753 86.2073C268.64 88.0149 268.362 88.0149 267.109 86.2073C266.414 85.095 265.857 81.3408 265.857 78.1428Z" fill="#02012A"/>
<path d="M431.966 458.429C438.087 453.84 445.043 449.252 447.269 448.279C449.495 447.305 452.834 446.471 454.503 446.332C456.729 446.332 457.703 447.166 457.703 449.113C457.703 450.642 456.173 454.397 454.225 457.456C452.277 460.514 448.104 464.825 444.765 467.05C441.565 469.135 436.279 472.333 433.079 474.002C429.74 475.531 424.732 477.339 421.949 477.756C419.028 478.312 415.411 478.312 413.88 477.756C411.237 476.922 411.376 476.505 415.967 471.777C418.611 469.135 425.845 463.017 431.966 458.429Z" fill="#02012A"/>
<path d="M132.58 79.2552C132.302 79.2552 132.163 78.0038 132.163 76.4743C132.163 74.1105 133.137 73.6934 143.988 73.8324L138.423 76.6133C135.363 78.0038 132.72 79.2552 132.58 79.2552Z" fill="black"/>
<path d="M280.186 107.759C277.404 106.23 274.204 103.449 272.952 101.502L270.726 98.0261L274.204 101.363C276.013 103.31 279.769 105.674 282.412 106.647C285.055 107.759 286.864 109.011 286.307 109.567C285.751 110.123 282.968 109.289 280.186 107.759Z" fill="black"/>
<path d="M221.895 169.356C222.452 167.131 224.121 165.463 225.93 165.045C227.599 164.767 229.825 164.35 231.077 164.211C232.746 164.072 233.164 165.324 232.746 170.329C232.607 173.805 232.051 179.228 231.633 182.426C231.216 185.763 231.773 191.464 232.746 195.357C233.859 199.111 237.894 207.315 241.928 213.433C245.824 219.551 249.441 226.364 249.719 228.728C249.997 231.091 250.832 239.434 251.667 247.499C252.362 255.702 254.449 265.713 256.118 270.441C257.788 275.029 260.153 279.896 261.405 281.286C263.492 283.65 263.353 283.789 258.066 283.65C255.005 283.65 249.997 282.399 246.937 281.008C243.876 279.618 240.676 277.671 239.702 276.559C238.729 275.447 236.224 268.077 233.998 260.013C231.773 251.948 229.547 243.188 228.99 240.546C228.573 237.905 227.877 234.15 227.46 232.204C227.182 230.257 226.486 226.503 226.208 223.861C225.79 221.219 225.095 215.519 224.538 211.347C223.982 207.176 223.425 202.17 223.286 200.224C223.008 198.277 222.452 191.464 221.895 184.929C221.339 178.394 221.339 171.441 221.895 169.356Z" fill="black"/>
<path d="M314.409 170.607C314.409 169.356 314.827 167.27 315.244 166.158C315.801 165.045 316.914 164.489 317.748 165.045C318.583 165.602 324.287 168.939 330.408 172.693C336.529 176.447 342.512 180.062 343.625 180.757C344.737 181.592 348.494 183.677 351.972 185.624C355.45 187.432 359.206 189.656 360.319 190.491C361.988 191.603 361.432 191.742 358.232 191.047C356.006 190.491 353.502 189.517 352.667 188.961C351.972 188.266 350.581 187.71 349.607 187.71C348.633 187.71 344.598 186.18 340.564 184.512C336.529 182.704 329.017 179.367 323.73 177.142C317.192 174.361 314.409 172.415 314.409 170.607Z" fill="black"/>
<path d="M419.445 453.562C416.384 453.84 414.575 453.423 414.575 452.311V452.172C414.575 451.198 416.662 450.503 420.14 450.503C423.479 450.503 425.427 451.059 425.009 451.894C424.592 452.589 422.227 453.423 419.445 453.562Z" fill="black"/>
<path d="M107.957 20.8565C109.348 19.7441 112.687 17.9365 115.469 17.1023C118.112 16.129 121.59 15.5728 123.121 15.9899C124.651 16.4071 126.738 16.6851 127.712 16.6851C128.546 16.6851 131.19 18.2146 133.555 20.1612C135.92 22.1079 137.728 24.4716 137.728 25.4449C137.728 26.4182 135.085 27.3915 130.911 27.8087C125.764 28.3649 122.982 29.4772 119.782 32.6752C117.417 35.039 115.052 38.9322 113.382 46.1625L109.904 43.5207C107.957 41.9912 105.592 38.9322 104.618 36.7075C103.087 33.6485 103.087 31.4238 104.2 27.8087C104.896 25.1668 106.705 21.9688 107.957 20.8565Z" fill="black"/>
<path d="M209.792 70.0781C211.461 69.8 212.853 68.5486 212.853 67.4363C212.853 66.3239 213.131 65.3506 213.548 65.3506C213.966 65.3506 215.218 67.1582 216.331 69.5219C217.444 71.8857 218.139 74.6666 217.722 75.7789C217.304 76.8913 216.052 77.8646 214.939 77.8646C213.826 77.8646 212.714 78.6989 212.714 79.5331C212.574 80.5064 212.574 81.7578 212.714 82.314C212.714 83.0092 212.296 84.3997 211.461 85.512C210.627 86.7634 208.818 87.3196 206.592 86.9025C204.274 86.439 202.882 86.9025 202.419 88.2929C202.001 89.4053 200.332 90.3786 198.662 90.3786C196.854 90.3786 194.628 89.6834 193.654 88.7101C192.68 87.7367 190.176 86.9025 188.229 86.9025C185.585 86.9025 183.777 85.6511 179.603 78.5598H183.638C185.863 78.5598 188.507 79.3941 189.481 80.3674C190.454 81.3407 192.124 82.0359 193.098 82.0359C194.072 82.0359 196.019 81.0626 197.271 79.8112C198.802 78.4208 200.888 77.8646 202.836 78.4208C204.505 78.8379 206.453 78.5598 207.288 77.4475C208.123 76.6132 208.262 74.6666 207.705 73.2761C206.87 71.3295 207.288 70.6343 209.792 70.0781Z" fill="black"/>
<path d="M53.5609 121.942C56.6216 119.856 62.3255 117.214 66.0817 116.102C69.8379 115.128 73.7333 114.155 74.4289 114.155C75.1245 114.016 78.1851 114.711 80.9675 115.407C83.889 116.241 87.2278 118.187 88.3408 119.856C89.4537 121.664 90.4276 124.723 90.4276 126.808C90.4276 130.562 90.1493 130.701 85.2802 129.867C82.0804 129.311 76.933 129.867 72.3421 131.119C67.7511 132.509 62.3255 135.429 58.5692 138.627C55.2304 141.547 51.6133 145.718 48.5526 152.253L45.0747 148.777C42.7096 146.413 41.5967 143.772 41.5967 140.435C41.5967 137.654 42.9879 133.482 44.7964 130.84C46.605 128.199 50.5003 124.166 53.5609 121.942Z" fill="black"/>
<path fill-rule="evenodd" clip-rule="evenodd" d="M184.751 44.4943C184.89 44.4943 186.281 45.3285 187.811 46.3018C190.037 47.5532 191.15 47.5532 193.376 46.1628C194.906 45.3285 197.132 44.7724 198.245 45.1895C199.358 45.6066 200.332 46.858 200.332 47.9704C200.332 49.2218 202.14 50.4732 204.645 51.1684C207.01 51.7246 209.514 53.2541 210.209 54.6445C211.044 56.0349 210.905 57.0082 210.07 57.0082C209.236 57.0082 208.679 58.2596 208.679 59.7891C208.679 61.6431 209.375 62.3383 210.766 61.8748C211.879 61.4577 212.574 61.8748 212.157 62.57C211.74 63.2652 212.018 63.9605 212.853 63.9605C213.548 63.9605 213.966 64.9338 213.548 66.0461C213.131 67.1585 211.879 68.1318 210.766 68.1318C209.514 68.1318 208.123 70.0784 207.566 72.7202C206.824 75.6865 205.526 77.216 203.671 77.3087C202.28 77.4478 199.915 77.5868 198.523 77.7258C197.271 77.8649 196.158 78.8382 196.158 79.9505C196.158 81.0629 195.045 82.0362 193.654 82.0362C192.402 81.8972 190.594 80.9239 189.898 79.8115C189.063 78.5601 186.976 77.5868 185.029 77.5868C183.081 77.5868 180.716 77.7258 179.603 78.0039C178.212 78.4211 177.516 77.3087 177.516 74.3888C177.377 71.1908 176.682 70.0784 174.177 69.9394C172.508 69.6613 170.839 68.2708 170.421 66.7413C170.004 64.9338 170.56 63.4043 172.091 62.7091C174.177 61.5967 174.317 60.9015 172.786 58.5377C171.395 56.174 171.395 55.2007 172.786 53.5321C173.76 52.2807 175.43 51.5855 176.543 51.7246C177.516 52.0027 179.047 50.8903 180.02 49.3608C180.855 47.8313 182.107 46.1628 182.942 45.6066C183.638 45.0504 184.472 44.4943 184.611 44.4943H184.751ZM186.976 69.9394C187.533 71.3298 189.481 72.3031 191.707 72.3031C193.932 72.4422 197.132 71.3298 198.941 69.9394C201.167 68.2708 202.001 66.6023 201.445 65.0728C200.749 63.4043 198.941 62.57 196.437 62.57C194.211 62.57 191.011 63.6824 189.341 65.0728C187.208 66.6486 186.42 68.2708 186.976 69.9394ZM487.057 82.0362C499.995 82.0362 500.969 82.1753 500.969 84.8171C500.969 87.4589 499.995 87.598 487.057 87.598C479.127 87.598 472.867 87.0418 472.449 86.2075C472.032 85.5123 472.032 84.1219 472.449 83.4267C473.006 82.5924 479.266 82.0362 487.057 82.0362ZM497.213 94.8283C517.385 95.2454 521.141 95.5235 521.141 97.3311C521.141 99.1387 517.385 99.4167 497.491 99.8339C484.414 99.9729 473.284 99.6948 472.589 99.1386C472.032 98.4434 471.893 97.192 472.449 96.2187C473.145 94.9673 478.988 94.5502 497.213 94.8283ZM503.334 111.235C503.89 111.235 505.142 111.792 505.977 112.348C506.812 112.904 508.62 115.407 509.873 117.91C511.125 120.273 512.098 123.193 512.098 124.167C511.959 125.001 513.072 127.365 516.968 132.37L520.724 127.365C524.202 123.054 525.315 122.359 530.462 122.359C533.801 122.359 538.531 121.803 540.896 120.969C544.513 119.856 546.322 119.995 548.965 121.664C550.913 122.776 553.556 126.113 554.808 128.894C556.756 132.926 558.564 134.456 562.599 135.568C565.52 136.263 569.416 138.349 571.224 140.157C573.172 141.825 574.702 144.467 574.702 145.997C574.702 147.526 574.146 148.777 573.311 148.777C572.476 148.777 571.92 147.943 571.92 147.109C571.92 146.136 570.529 143.911 568.859 142.381C567.051 140.713 563.712 138.905 561.486 138.488C559.26 138.071 556.338 136.542 555.086 135.29C553.834 133.9 551.887 130.98 550.913 128.616C549.104 124.862 548.27 124.445 543.4 124.723C540.34 124.862 535.192 125.279 531.993 125.418C527.262 125.696 525.315 126.808 522.254 130.563C519.194 134.178 517.663 135.012 515.159 134.317C512.933 133.761 511.264 131.119 508.899 124.723C506.812 119.3 504.864 115.963 503.334 115.685C501.757 115.5 499.624 117.817 496.934 122.637C494.709 126.669 491.926 131.397 490.674 133.065C489.422 134.873 487.196 136.263 485.666 136.263C483.718 136.263 482.605 135.012 481.77 132.092C481.214 129.728 480.379 127.921 479.684 127.921C479.127 127.921 477.458 130.563 475.927 133.9C474.397 137.098 473.145 140.852 473.145 142.242C473.145 143.494 472.31 144.606 471.336 144.606C470.224 144.606 469.945 143.355 470.502 140.157C471.058 137.654 472.728 133.204 474.397 130.424C476.206 127.087 478.292 125.14 480.101 125.14C481.956 125.14 483.347 126.53 484.275 129.311C485.109 131.675 486.222 133.204 487.057 132.787C487.892 132.37 490.118 128.755 492.204 124.723C494.152 120.83 497.352 116.102 499.021 114.294C500.83 112.626 502.777 111.235 503.334 111.235ZM570.529 223.861C579.85 223.861 581.658 224.278 581.241 226.086C581.102 227.198 580.545 228.172 579.85 228.172C579.293 228.033 574.563 228.033 569.137 228.033C561.347 228.033 559.399 227.616 559.399 225.947C559.399 224.278 561.625 223.861 570.529 223.861ZM599.048 233.594C626.455 233.594 632.993 234.012 635.636 235.68C638.558 237.627 638.697 238.739 638.697 254.173C638.836 265.714 638.28 270.997 637.028 272.11C635.636 273.5 626.037 273.917 599.048 273.778C573.311 273.778 562.321 273.222 561.068 272.11C559.816 270.997 559.26 265.575 559.121 254.173C558.982 238.461 559.121 237.905 562.321 235.68C565.103 233.873 571.085 233.594 599.048 233.594ZM488.17 317.855C490.257 318.133 494.848 319.107 498.326 319.663C501.804 320.358 505.142 320.775 505.977 320.497C506.673 320.219 515.02 319.663 524.619 319.246C536.212 318.69 541.545 318.875 540.618 319.802C539.783 320.497 529.627 321.331 517.663 321.47C505.838 321.748 493.178 321.47 489.561 320.775C485.805 320.219 483.162 319.246 483.579 318.411C483.996 317.716 486.083 317.438 488.17 317.855Z" fill="#917AFF"/>
<path d="M569.694 229.146C564.268 229.285 559.538 229.006 558.982 228.45C558.425 227.754 562.877 227.615 579.432 228.728L569.694 229.146Z" fill="#909090"/>
<path d="M639.531 260.013C639.253 264.184 639.114 261.403 639.114 253.756C639.114 246.108 639.253 242.632 639.531 246.108C639.81 249.585 639.81 255.842 639.531 260.013Z" fill="#3C3C3C"/>
<path d="M615.603 274.891C606.421 275.169 590.7 275.169 580.823 274.891C570.945 274.752 578.458 274.474 597.517 274.474C616.716 274.474 624.785 274.752 615.603 274.891Z" fill="#3C3C3C"/>
<path d="M180.716 62.709C180.577 62.1528 181.968 59.9281 183.637 57.8425C185.446 55.6178 188.089 54.2273 190.315 54.2273C192.402 54.0883 195.741 55.3397 197.827 57.0082C200.053 58.5377 201.723 60.4843 201.723 61.1795C201.723 62.0138 199.497 62.57 196.854 62.57C193.654 62.57 190.454 63.8214 187.811 66.0461C183.776 69.5222 183.637 69.5222 182.246 66.7413C181.411 65.2118 180.855 63.4042 180.716 62.709Z" fill="black"/>
<path d="M589.448 264.462C588.892 263.906 588.475 258.9 588.475 253.339C588.475 247.916 588.753 243.327 589.17 243.327C589.587 243.327 594.178 245.552 599.604 248.194C605.03 250.836 609.342 253.617 609.342 254.451C609.342 255.285 605.169 258.066 599.882 260.708C594.735 263.35 590.005 265.018 589.448 264.462Z" fill="black"/>
<path d="M588.057 260.013C587.779 262.655 587.501 260.152 587.501 254.451C587.501 248.75 587.779 246.525 588.057 249.584C588.336 252.643 588.336 257.371 588.057 260.013Z" fill="#909090"/>
</svg>
