<svg width="603" height="668" viewBox="0 0 603 668" fill="none" xmlns="http://www.w3.org/2000/svg">
<path fill-rule="evenodd" clip-rule="evenodd" d="M518.831 141.366C527.362 120.988 517.759 97.5528 497.381 89.0217L292.977 3.44714C272.599 -5.08403 249.164 4.51948 240.633 24.8971L184.502 158.973C173.861 184.389 136 176.783 136 149.23V149.23C136 135.296 124.704 124 110.771 124H40C17.9086 124 0 141.909 0 164V346.756C0 366.773 16.2274 383 36.2448 383V383C62.1346 383 79.6759 409.361 69.6779 433.242L61.447 452.902C52.9159 473.28 62.5193 496.715 82.8969 505.246L181.242 546.419C197.663 553.294 205.388 572.191 198.485 588.601V588.601C191.59 604.991 199.286 623.867 215.676 630.762L296.61 664.81C316.973 673.377 340.425 663.814 348.992 643.451L488.633 311.521C492.694 301.869 488.161 290.753 478.509 286.692V286.692C468.869 282.637 464.333 271.541 468.372 261.894L518.831 141.366ZM600.062 318.16C608.031 299.216 599.135 277.399 580.191 269.43V269.43C561.248 261.461 539.431 270.357 531.462 289.3L463.43 451.013C455.46 469.957 464.357 491.774 483.3 499.743V499.743C502.243 507.712 524.06 498.816 532.03 479.873L600.062 318.16Z" fill="#D9D9D9"/>
</svg>
